<?xml version="1.0" encoding="UTF-8" standalone="no"?>
<!-- Created with Inkscape (http://www.inkscape.org/) -->

<svg
   version="1.1"
   id="svg1"
   width="1071.0396"
   height="251.0527"
   viewBox="0 0 1071.0396 251.05271"
   xmlns="http://www.w3.org/2000/svg"
   xmlns:svg="http://www.w3.org/2000/svg">
  <defs
     id="defs1" />
  <g
     id="layer-Pr13"
     transform="translate(-38.247744,-446.54824)">
    <path
       id="path1"
       d="m 41.640341,653.82911 c -4.133811,1.19924 -4.187963,4.73479 -0.76998,6.7525 44.491772,32.10142 94.413629,37.11511 148.340229,22.14324 3.75941,-1.35473 2.35247,-5.76113 -0.99089,-6.23971 -1.62868,-0.20298 -3.25713,-0.40578 -4.88628,-0.60864 37.79443,-14.15582 72.8916,-24.01467 114.96619,-32.14101 59.55778,-6.93176 95.45483,-7.58153 132.87244,5.72686 l -0.69577,2.28009 c 7.68505,7.90077 14.25197,24.19145 20.37995,43.77447 1.36766,2.73059 3.47786,2.34014 4.03601,0.11072 l 3.76979,-34.0969 c 2.15639,1.11259 4.33367,2.26889 6.53849,3.47698 8.22668,-2.67302 16.57707,-4.73326 25.30002,-4.93223 0.33895,-0.50901 0.67891,-1.01797 1.01833,-1.5268 -0.86077,-1.50876 -1.72059,-3.01733 -2.58105,-4.52615 -2.4796,-0.26851 -4.95936,-0.53691 -7.43895,-0.80525 20.42059,-16.36088 26.48475,-35.35548 24.85961,-55.76121 -1.00163,-4.82345 -3.17973,-5.37287 -6.65776,-1.20797 -3.99483,4.26022 -7.98955,8.52145 -11.98427,12.78238 -0.22286,-2.2798 -0.44495,-4.55942 -0.66745,-6.83915 -9.81236,-17.25544 -8.07403,-33.80195 0.44395,-49.93372 0.16988,-1.86947 -3.17023,-6.12314 -5.98323,-3.42453 -1.47195,1.04074 -2.16471,0.72775 -1.49672,-1.9527 0.29813,-4.53057 -2.28345,-5.1949 -6.26525,-3.9808 -3.77764,1.67581 -7.55398,3.35227 -11.33114,5.02838 -4.06008,1.87667 -7.25697,0.84324 -8.19454,-7.80108 -0.41652,-1.50811 0.45946,-2.67992 1.69604,-3.75859 -2.70251,-14.26323 -6.77827,-28.44831 -13.25476,-42.49765 -1.17936,-3.49019 -5.98836,-3.24108 -7.31472,-0.49911 -2.03611,4.19168 -4.07176,8.38401 -6.1074,12.57599 -1.76995,-4.27374 -4.91051,-5.12017 -7.53475,-3.72378 -11.2482,7.31554 -22.49587,14.6312 -33.7439,21.94692 -1.34188,-0.038 -2.68293,-0.0756 -4.02427,-0.11337 0.41717,-2.57728 0.83404,-5.15396 1.25103,-7.73071 -2.12772,-9.76824 -4.6568,-19.53641 -8.43698,-29.30447 -0.83811,-4.03265 -3.86228,-5.09964 -6.76406,-1.91024 -10.90996,14.09318 -21.81886,28.187 -32.7283,42.27993 -2.7284,3.9467 -7.57869,4.242 -9.77537,0.80567 -1.03555,-2.94595 -2.06909,-5.89038 -3.10381,-8.83604 -0.51733,-4.07842 0.53025,-7.97097 5.43994,-11.40718 5.62918,-2.62977 7.09599,-6.76978 5.64941,-11.96704 -5.42136,-22.55239 -35.10649,-22.33354 -35.50496,5.23159 -0.10889,7.21332 -0.21773,14.42705 -0.32656,21.64055 -0.12824,3.27487 -1.85225,3.81362 -3.67535,1.81396 -4.06509,-3.4115 -7.62335,-7.3139 -10.09126,-12.27626 -1.39555,-1.77993 -3.02701,-2.54678 -5.21985,-0.91215 -3.84554,2.6181 -7.68889,5.23578 -11.53312,7.85365 -1.25894,-1.61075 -2.51634,-3.22114 -3.77446,-4.83195 -3.0132,-3.25641 -6.31043,-3.52328 -6.65805,-0.80525 -0.64345,2.17692 -1.86859,3.98864 -3.9949,5.23489 -2.65932,-4.42108 -5.31883,-8.8417 -7.97816,-13.2619 2.3458,-0.57054 5.45628,1.59334 4.2112,-2.04284 -8.13466,-21.71404 -20.25737,-39.99128 -35.2884,-55.76139 -2.10136,-2.02396 -4.46055,-1.39974 -3.56918,2.01942 4.40139,24.56243 7.79513,49.12575 9.78275,73.68883 0.005,3.00866 1.35745,4.37177 4.32529,6.03655 5.47952,2.65196 7.65461,2.00184 7.3182,-3.92363 1.22048,2.01074 2.44314,4.02226 3.66426,6.03348 -12.24039,5.80231 -24.47896,11.60521 -36.71906,17.40781 -5.57455,1.53701 -8.03639,-0.21785 -7.33643,-5.32137 2.60347,-11.07714 5.04006,-22.18466 0.77801,-34.53914 -1.76459,-3.68302 -3.60439,-4.19303 -5.54306,-0.60245 -2.18128,3.12233 -4.36274,6.24537 -6.54403,9.36753 -2.10354,2.33294 -3.83232,2.04319 -5.23772,-0.52524 -1.21564,-4.66135 -2.43099,-9.32258 -3.64657,-13.98375 2.53209,-0.89527 3.67612,-2.51085 3.76879,-4.67108 -0.12594,-1.75556 -0.251,-3.5113 -0.37658,-5.26686 -0.24198,-5.04425 -1.24437,-5.91628 -5.92949,-7.42267 -3.79858,-1.60326 -5.10565,-0.49598 -4.54685,2.64458 -2.25667,-0.26468 -4.46958,-0.4456 -5.67035,1.36382 -1.52008,-7.09015 -4.45365,-13.75204 -7.54908,-20.36544 -1.21517,-4.3726 -6.68631,-3.25028 -9.60166,-4.28318 -4.10874,-1.68377 -8.216,-3.36695 -12.32356,-5.05043 -3.77817,-1.53984 -8.47196,0.74208 -13.13567,2.89847 2.94979,-4.96272 6.4828,-9.60803 11.1763,-13.6218 1.98632,-3.15731 -6.75085,-3.73752 -9.40469,-0.0763 -18.94411,13.72143 -33.983877,30.9856 -44.396507,52.44675 -4.549678,7.92856 -3.37297,15.11634 3.56145,21.5572 0.28008,7.07622 2.30221,16.5829 -2.20872,16.97252 -4.42557,-5.30231 -10.159801,-8.82247 -16.554119,-11.44499 -3.416155,-1.49288 -5.099988,-0.2356 -5.891085,2.43895 -3.865767,24.92262 2.135981,48.29672 15.333173,70.5406 -1.79951,-2.20305 -5.779184,-1.91242 -4.537943,1.73969 10.931674,16.17005 23.736234,30.64075 39.918371,42.04781 -20.966887,6.15141 -41.933131,7.37855 -62.900199,7.85329 z m 218.819299,-131.5777 -1.35993,-0.7048 2.52626,-3.17188 1.5534,1.40959 z m 51.19366,-16.74065 c 1.61428,2.50567 3.39161,5.01204 5.00554,7.51788 1.73215,-3.13442 4.36523,-6.04558 8.28632,-8.78265 3.89273,-3.88364 2.75201,-8.84436 -1.88699,-14.514 -4.90449,-4.01696 -10.52128,-3.67683 -12.47068,2.82821 -2.28676,5.5148 -1.03065,9.4241 1.06581,12.95056 z m -141.27852,12.95546 c -2.41753,0.12122 -3.44571,-0.67306 -3.90004,-1.84652 0.96016,-0.103 1.92209,-0.20517 2.8829,-0.30769 0.33948,0.71766 0.67837,1.4362 1.01714,2.15421 z m 0.37558,-19.8533 c -0.33942,-2.35902 -0.34414,-5.14293 -0.68309,-7.50213 0.6779,0.35871 0.82207,0.47521 1.50026,0.83404 0.0565,2.00019 0.24664,4.48633 0.30297,6.48652 -0.39664,-3.5e-4 -0.7245,0.18174 -1.12014,0.18157 z m -3.94233,7.73041 c -1.72265,-3.57784 -3.94074,-6.92946 -6.37698,-10.18305 0.62169,-0.50217 1.24355,-1.00428 1.86523,-1.50627 1.96975,3.64874 3.94021,7.29867 5.91014,10.94807 -0.46619,0.24698 -0.93191,0.49426 -1.39839,0.74125 z m -78.860127,-5.11019 c -3.34856,14.57458 -4.45501,30.09722 -1.01744,47.54443 2.59981,3.64138 5.20127,7.28257 7.80208,10.9243 -6.61121,-26.76094 -10.17466,-54.72283 14.585437,-93.85748 -9.761157,9.8346 -18.110067,20.63012 -24.253157,32.92709 2.05623,-0.96883 3.08842,-0.26285 2.88308,2.46166 z M 122.33278,648.2322 c -23.891317,8.27146 -46.295877,11.15135 -67.820098,10.8318 36.485701,25.30139 76.653238,31.67854 120.240718,20.4718 -6.73545,-1.22702 -5.7494,-3.28307 -1.16344,-5.72586 54.53956,-25.87139 114.52377,-42.39731 181.79521,-42.69526 49.17554,-0.21808 66.77612,8.03556 88.30134,17.99722 0.0112,0.30096 -0.005,0.62168 -0.0507,0.96328 0.1582,1.96639 -0.90312,1.88935 -2.71921,0.54748 -1.56408,-0.9381 -1.85484,1.00528 -1.69934,1.71675 5.94606,9.40834 9.3408,19.24395 12.31985,29.14839 l 1.49188,-28.12152 c 3.79268,1.67629 7.82114,3.37363 12.23721,5.06183 2.352,-0.43811 4.70506,-0.87534 7.05718,-1.31298 -4.2627,-0.75145 -4.27692,-2.13562 -0.59042,-4.98124 10.75476,-10.20994 22.65591,-15.49439 29.28607,-43.05262 -3.35563,4.03017 -6.71109,8.06116 -10.06702,12.09198 1.89803,-0.14199 2.37058,0.52134 1.45756,2.45717 -2.27726,10.53386 -11.62609,18.25973 -20.33047,26.20816 -1.2551,-0.13744 -1.41425,-0.69394 -0.76968,-2.79058 7.49345,-12.15852 12.72605,-24.63186 8.12888,-38.6359 -0.66687,-2.42072 -0.99927,-4.76104 1.17647,-6.50286 -7.5466,-10.04377 -7.67968,-22.15663 -4.95334,-35.06773 -7.8081,9.72724 -13.83209,22.42061 -12.14407,47.94137 1.10758,-0.11355 1.97577,0.57119 2.63656,1.94451 2.30959,5.50482 4.61894,11.00924 6.92882,16.51389 0.77818,1.60255 0.9509,2.85163 -0.356,3.23771 -4.44032,4.80068 -8.87981,9.60201 -13.31965,14.40316 -2.21503,1.26578 -4.37024,0.68274 -4.44415,-1.81709 -0.80396,-1.15641 1.12515,-7.46036 -0.63608,-15.85676 -1.56225,-7.44573 -2.27142,-17.10661 1.78199,-27.43494 5.74309,-19.05619 4.94125,-39.50776 6.19087,-42.70636 0.13862,-0.24274 0.15349,-0.23023 0.41487,-0.35782 2.48224,-0.97816 4.96519,-1.95637 7.44726,-2.93458 1.9487,-0.73606 2.78356,-3.76743 3.03609,-8.00105 -5.77133,2.89422 -11.81036,5.30344 -18.1979,7.07888 -1.10492,8.14994 -3.31646,16.13283 -6.27209,24.00281 -2.34569,6.55925 -10.87463,6.67628 -14.53175,-1.15559 -2.13327,-4.68028 -4.26678,-9.36068 -6.4004,-14.04097 -2.32905,-4.67527 -1.71138,-9.2719 1.20278,-13.80755 3.59336,-5.33039 6.37827,-10.60741 9.97204,-15.93716 0.5299,-4.46656 4.00469,-7.91115 6.21211,-2.01358 1.11913,-0.68338 2.87416,-1.10444 2.14294,-3.67647 -2.32286,-10.35494 -5.05864,-21.08829 -8.26527,-31.71044 -5.48022,12.65361 -9.98006,24.9977 -14.27993,36.84871 -0.51402,1.71256 -1.23068,2.20135 -2.26852,2.0094 -1.76866,2.94625 -3.47184,2.45534 -2.56324,-0.23395 0.64781,-1.75905 0.2983,-3.27099 -0.59325,-4.64914 1.18054,-6.31227 1.39172,-12.74475 -0.50748,-19.43826 -0.3291,-1.44103 0.37641,-2.54082 3.12853,-2.96601 0.63371,-0.85746 -0.47203,-1.31663 -1.13371,-0.87185 -13.19371,8.49602 -25.75701,16.65882 -38.95055,25.15521 0.60747,4.9475 -3.20361,7.15621 -4.38079,2.98777 -0.71618,-2.88342 -1.43237,-5.76614 -2.14837,-8.64922 -1.50303,1.51914 -3.00642,3.03893 -4.50969,4.558 -2.84662,2.18465 -5.16234,1.97884 -5.3839,-1.31291 -0.44312,-2.55952 -1.15541,-5.45227 -2.4396,-8.01197 -1.89171,-1.53636 -1.91595,-2.80013 -0.16841,-4.4629 2.32074,-2.66606 4.64165,-5.33105 6.96256,-7.9964 1.44558,-1.74335 2.00473,-0.84542 2.34781,1.5865 0.92807,3.24373 3.56197,3.05226 2.82756,-0.67253 -1.32011,-5.58688 -2.63945,-11.17246 -3.95908,-16.75887 -17.95275,22.89588 -35.90479,45.79206 -53.857,68.68812 -1.281,1.44953 -1.996,1.48935 -2.28829,-0.34916 -0.20587,-8.03573 -0.69394,-16.11459 -0.89946,-24.15045 0.0711,-0.60115 -0.70497,-7.39376 5.7212,-0.73476 0.73954,-1.07395 0.72633,-2.57468 0.6658,-4.03265 -4.96449,-7.51699 -9.92756,-15.03304 -14.89123,-22.54956 0.51503,12.72888 1.03018,25.45824 1.54539,38.18723 -0.51521,1.27971 -1.18638,1.43036 -1.95789,0.84744 -6.99217,-11.89944 -14.10804,-23.7419 -22.86793,-34.8388 0.72368,-0.91049 0.64776,-2.20435 -0.93508,-1.14993 -7.05582,4.1265 -13.82908,8.46695 -20.88461,12.59374 -2.55332,1.32571 -4.57056,1.03207 -5.69961,-1.94881 -6.52928,-11.75568 -13.05809,-23.51054 -19.58738,-35.26587 -2.28982,-5.34698 -1.12367,-6.03903 4.42062,-0.83357 -6.31026,-13.75836 -13.15313,-24.97412 -20.41228,-34.21028 4.72022,21.6107 8.02353,43.65042 9.57823,66.2185 0.27389,-3.28968 0.54795,-6.57913 0.82201,-9.86881 0.76603,-1.10215 1.53217,-1.17919 2.2982,-0.34296 4.94361,7.66381 9.88922,15.32816 14.83354,22.99232 -37.47441,13.65536 -73.48673,29.07838 -103.84911,51.33629 4.56272,-1.54904 9.12597,-0.21737 13.68869,2.38781 2.32539,1.15405 4.4179,-1.27068 2.77854,-2.01358 -2.8685,-0.9837 -2.32793,-1.32117 -0.19767,-2.33932 1.91944,-3.45172 7.88491,-5.13491 12.31071,-6.53111 3.99047,7.22488 3.75457,15.32214 1.8201,23.76921 -3.90859,8.65288 -9.87023,11.53813 -19.4326,4.31272 -54.781167,-35.50531 -46.89261,-91.06955 -30.95444,-117.74809 3.36613,-6.62915 7.33607,-6.41278 11.66903,-2.07782 11.67162,15.21467 17.33153,41.88129 17.82515,64.66043 1.1737,-0.42118 1.36983,-1.3345 1.25162,-2.40633 2.60766,-0.98741 5.24026,-1.66041 8.18852,-1.37715 12.26635,-3.48122 19.41401,-12.85559 23.42306,-25.84496 -4.88291,5.75193 -10.56411,10.48766 -17.41246,13.74313 -4.72824,1.56379 -7.07706,-1.49489 -8.42011,-6.51141 -1.43166,-20.73129 -3.6432,-41.05674 -11.87107,-58.2644 -2.12076,0.4518 -4.24099,0.51203 -6.36193,-1.23333 -18.6179,-10.10147 -27.80687,1.56863 -35.7441,16.13076 -13.989757,29.04711 -6.764407,60.26748 3.70579,91.82007 0.11037,2.53958 -1.96409,2.56784 -4.13871,0.048 -5.432857,-8.841 -10.977437,-17.59941 -17.893867,-25.36356 0.3117,1.42529 0.62422,2.8511 0.93627,4.27645 0.87268,2.29082 -1.34276,3.13654 -1.81042,2.23543 -0.40602,-0.94523 -0.81116,-1.89047 -1.21665,-2.83558 -0.0236,0.13296 -2.18765,-0.37423 -2.7356,-1.10009 -5.91326,-7.83423 -11.987451,-13.33333 -19.372661,-18.67087 -1.474482,-1.31763 -2.198864,-0.37605 -2.147013,0.671 0.603278,36.62651 10.775647,72.42711 61.179381,104.7514 3.59371,2.16435 4.02545,4.03093 0.47073,5.52081 l -10e-4,-4.7e-4 z"
       style="fill:#ffffff;fill-opacity:1;fill-rule:evenodd;stroke:#ffffff;stroke-width:0.334407;stroke-linecap:butt;stroke-linejoin:miter;stroke-miterlimit:22.9256;stroke-dasharray:none;stroke-opacity:1" />
    <path
       id="path2"
       d="m 204.31801,621.82454 -5.63301,1.23369 1.35993,-3.34861 z"
       style="fill:#ffffff;fill-opacity:1;fill-rule:evenodd;stroke:#ffffff;stroke-width:0.334407;stroke-linecap:butt;stroke-linejoin:miter;stroke-miterlimit:22.9256;stroke-dasharray:none;stroke-opacity:1" />
    <path
       id="path3"
       d="m 103.37876,636.83298 c -9.296677,-7.28557 -18.403357,-14.78505 -26.101797,-23.88223 1.82009,0.69058 3.59908,1.60739 5.22003,3.38253 5.65943,6.66272 12.48472,12.41937 19.539357,17.99687 0.44767,0.8344 0.8951,1.66879 1.34241,2.50283 z"
       style="fill:#ffffff;fill-opacity:1;fill-rule:evenodd;stroke:#ffffff;stroke-width:0.334407;stroke-linecap:butt;stroke-linejoin:miter;stroke-miterlimit:22.9256;stroke-dasharray:none;stroke-opacity:1" />
    <path
       id="path4"
       d="m 337.12575,581.10103 c -1.23635,-2.48124 -3.19708,-4.79832 -5.4603,-7.04685 7.59374,-13.76921 15.18901,-27.53747 22.78363,-41.30638 1.22632,-2.37441 3.05597,-1.91088 3.09561,0.40095 -0.53273,1.76176 -1.06445,3.52434 -1.59706,5.28627 7.22358,12.50178 11.58249,25.20388 15.46012,37.93907 0.24716,4.15505 -1.02051,6.1865 -3.59542,6.38399 -8.94783,0.22056 -17.89518,0.44195 -26.84323,0.66304 -2.16518,-0.20104 -3.47397,-0.95597 -3.84335,-2.32009 z"
       style="fill:#ffffff;fill-opacity:1;fill-rule:evenodd;stroke:#ffffff;stroke-width:0.334407;stroke-linecap:butt;stroke-linejoin:miter;stroke-miterlimit:22.9256;stroke-dasharray:none;stroke-opacity:1" />
    <path
       id="path5"
       d="m 283.65182,586.83692 c -4.97021,-11.30773 -10.14039,-22.55393 -15.88065,-33.62806 4.37077,-7.73973 8.74201,-15.47834 13.11326,-23.21737 11.73415,11.10221 19.3152,24.6636 25.14588,39.25953 1.57129,3.29393 2.06072,6.43685 0.29566,9.26489 -3.44459,6.17199 -8.6402,10.25277 -16.95967,10.60458 -2.71602,0.0999 -4.63345,-0.0266 -5.71448,-2.28357 z"
       style="fill:#ffffff;fill-opacity:1;fill-rule:evenodd;stroke:#ffffff;stroke-width:0.334407;stroke-linecap:butt;stroke-linejoin:miter;stroke-miterlimit:22.9256;stroke-dasharray:none;stroke-opacity:1" />
    <path
       id="path6"
       d="m 250.08099,601.75322 c -0.72574,-18.76071 -1.55577,-37.52072 -4.72576,-56.28126 -0.37222,-4.03665 3.3551,-4.24736 4.72623,-0.68822 7.83406,15.52577 11.24083,31.97832 15.03623,48.34969 4.37678,1.02735 5.54558,3.62633 1.32647,4.20708 -3.62232,2.43741 -7.24363,4.87553 -10.86525,7.31354 -3.37616,1.45171 -5.45427,0.87014 -5.49792,-2.90083 z"
       style="fill:#ffffff;fill-opacity:1;fill-rule:evenodd;stroke:#ffffff;stroke-width:0.334407;stroke-linecap:butt;stroke-linejoin:miter;stroke-miterlimit:22.9256;stroke-dasharray:none;stroke-opacity:1" />
    <path
       id="path7"
       d="m 86.453893,581.69381 c -2.35784,-1.29828 -4.71656,-2.59598 -7.0754,-3.89373 4.56956,0.31205 7.96932,-0.0622 6.50339,-3.29304 -3.18292,-5.50047 -6.8542,-10.73371 -11.8099,-15.26864 -4.625893,-4.17581 -6.695159,-0.94878 -5.748921,2.79677 7.076401,22.99817 25.571081,43.9696 48.957568,64.07319 1.56526,0.71129 2.25048,0.22587 1.68832,-1.95642 -8.79935,-10.4397 -15.76592,-20.54665 -19.247317,-30.02124 9.225307,6.53146 17.934517,15.1785 26.451487,24.60578 0.46902,-0.3042 0.93939,-0.60782 1.40924,-0.91184 -0.44643,-0.94424 -0.2284,-2.24948 -0.67501,-3.19324 18.28031,20.57243 41.18233,31.99235 82.52723,11.04086 1.06781,-0.77322 2.48189,-1.02387 4.61433,-0.18847 12.95062,4.35573 26.41603,1.25611 40.8511,-6.05106 10.52672,-5.46784 23.95432,-8.01498 38.52082,-9.25421 -2.07275,1.73014 -1.30808,3.31982 1.71527,2.67873 21.44393,-5.63318 55.03854,-2.38627 91.21019,2.74398 18.28249,2.81353 35.31926,6.96439 49.81703,13.83646 l 7.53221,3.91844 c 0.0554,0.008 0.58275,0.39328 0.72438,-1.00328 0.89946,-5.45374 3.35475,-27.2286 4.14986,-29.12698 1.35963,-1.85254 -0.84041,-3.34661 -3.06146,-2.10708 -1.69622,2.83713 -3.95908,2.58513 -6.75639,-0.57449 -6.57694,-5.94995 -12.61131,-12.79406 -16.1517,-23.75133 -0.7944,-2.04532 -2.37459,-1.89018 -2.32274,-0.0958 0.46973,3.25795 0.85115,6.52362 1.15146,9.79578 1.04788,5.31737 2.91133,10.45576 7.10466,14.0943 0.66634,0.98251 1.3397,1.96173 1.99948,2.94778 0.14582,0.21873 0.17207,0.32839 0.19213,0.6933 0.0809,1.50185 0.30704,2.93569 0.87923,4.32393 0.25501,0.61967 0.28043,0.71866 -0.46082,0.32155 -6.50693,-3.48842 -9.63363,-5.34061 -16.08098,-7.47842 0.24835,-2.53427 0.65696,-5.73588 0.91114,-9.07577 1.10663,-19.09576 -1.83832,-36.91189 -7.27325,-53.94347 -0.82,-2.29094 -2.00903,-3.35345 -4.40934,-0.38944 -9.89749,8.09154 -16.34183,18.15207 -21.07125,28.59177 2.69278,12.50561 5.11804,17.33974 9.45867,24.96326 -0.74391,0.052 -1.3056,0.93456 -2.03364,0.78673 -22.88078,-4.64565 -41.03816,-2.28947 -55.49835,4.20944 -3.7337,-6.15559 -7.46603,-12.31101 -11.19901,-18.4666 -2.06862,0.93987 -4.13582,1.88015 -6.20408,2.82019 -0.73789,1.96627 -1.47384,3.93302 -2.21108,5.89958 1.17854,2.98159 2.35855,5.96276 3.53773,8.94452 1.28183,3.2842 5.06885,3.94906 10.18458,3.22114 -0.10087,1.11318 -0.1995,2.22647 -0.29931,3.33959 -7.42225,-0.26852 -14.52508,0.76148 -21.35769,1.96456 1.61476,-5.47587 2.76286,-10.60393 2.90366,-16.07909 -0.12275,-1.0349 -1.39036,-0.78844 -1.62284,0.13125 -4.07977,4.46391 -10.07285,8.64303 -16.86965,11.97123 -0.98222,0.98169 -2.06626,1.26425 -3.40176,0.66663 -2.63143,-1.0927 -5.26168,-2.18529 -7.8921,-3.27818 -2.19733,-0.33104 -3.18103,-0.0508 -2.18748,1.22602 0.64563,1.03821 1.29191,2.07641 1.93784,3.11431 -15.34409,0.91232 -26.74425,5.38591 -38.81181,11.90617 -12.73253,9.20719 -22.70104,6.88416 -30.48861,-4.54278 -6.71386,-14.60183 -8.23701,-30.87074 2.06779,-50.94036 1.30654,-4.41088 0.17921,-5.08276 -3.12086,-2.41907 -13.46559,7.83306 -17.71732,23.61602 -16.64915,43.99037 -8.01781,55.44969 -60.26624,21.10652 -72.94309,-2.26558 -2.92625,-5.1043 -5.49799,-3.90222 -3.99354,0.8023 1.82494,3.97213 3.65087,7.9449 5.47587,11.91767 -10.53421,-11.18078 -21.8207,-21.45012 -35.548137,-28.76797 z"
       style="fill:#ffffff;fill-opacity:1;fill-rule:evenodd;stroke:#ffffff;stroke-width:0.334407;stroke-linecap:butt;stroke-linejoin:miter;stroke-miterlimit:22.9256;stroke-dasharray:none;stroke-opacity:1" />
    <path
       id="path8"
       d="m 168.07965,667.62291 c -0.19148,-0.18876 -0.3816,-0.38508 -0.57255,-0.58186 0.66616,-0.32674 1.03756,-0.67035 1.05313,-1.01083 0.0152,-0.34762 -0.37405,-0.9683 -1.23322,-1.84134 -2.86414,-2.90932 -5.82095,-5.85746 -8.79398,-8.87396 -0.92907,-0.94205 -1.65976,-1.50622 -2.21089,-1.68614 -0.56954,-0.18646 -1.26514,-0.17755 -2.14566,-0.002 -0.21572,-0.21837 -0.43026,-0.42837 -0.58629,-0.64893 4.29155,-1.3496 8.6494,-2.68192 12.95428,-3.99218 0.15402,0.21401 0.36767,0.42672 0.56133,0.63891 -0.67536,0.30916 -1.04994,0.64728 -1.08385,0.99856 -0.0353,0.36083 0.40997,1.00611 1.26843,1.94385 0.7744,0.84726 1.56633,1.69422 2.33796,2.52844 0.26439,-0.47604 0.5309,-0.95143 0.79564,-1.42635 0.23076,-0.41387 0.5309,-0.95491 0.92235,-1.6308 0.97886,-1.68903 1.29869,-2.71083 0.96712,-3.08075 -0.16387,-0.18139 -0.41871,-0.31099 -0.76113,-0.36803 -0.32208,-0.0538 -0.73943,-0.0429 -1.25145,0.0363 -0.19313,-0.20398 -0.38655,-0.41481 -0.5404,-0.62717 3.82448,-1.175 7.63491,-2.3343 11.25122,-3.46647 0.19195,0.20646 0.36467,0.41953 0.55679,0.62551 -1.05324,0.37358 -2.11091,0.97768 -3.07502,1.80842 -0.96181,0.82903 -1.77798,1.80936 -2.50018,2.90661 -0.32904,0.49899 -0.63236,0.97839 -0.93886,1.45378 2.01859,0.19431 4.04969,0.65147 6.14037,1.31981 2.10082,0.67118 4.24117,1.57129 6.48681,2.6834 0.44796,0.22174 0.9919,0.52742 1.71758,0.93804 1.99287,1.12769 3.6685,1.56597 5.05686,1.28406 0.16753,0.19213 0.33641,0.37824 0.50447,0.55698 -3.7026,1.29987 -7.37972,2.6234 -11.2472,3.97648 -0.18994,-0.19047 -0.35883,-0.38012 -0.50931,-0.57307 0.32456,-0.1749 0.54376,-0.35818 0.58057,-0.52606 0.0409,-0.18723 -0.005,-0.3921 -0.23595,-0.6372 -0.63608,-0.67689 -1.9651,-1.42983 -3.9959,-2.25974 -2.07322,-0.84743 -4.51523,-1.55824 -7.30829,-2.1361 -0.31506,0.33158 -0.59012,0.66197 -0.86519,0.99272 1.40559,1.47915 2.80751,2.93292 4.20938,4.39348 0.82472,0.85882 1.49825,1.36182 2.03481,1.52769 0.47003,0.14565 1.11383,0.1381 1.85237,-0.0448 0.18929,0.19213 0.35971,0.3839 0.5493,0.57538 -3.91608,1.39001 -7.96265,2.80114 -11.94545,4.2256 z m 37.06839,-20.93409 c 1.04493,-0.21171 2.05387,-0.33677 2.94566,-0.40419 0.89238,-0.0678 1.76807,-0.056 2.64694,0.0264 -1.93547,-1.44989 -3.85426,-2.91635 -5.87881,-4.41218 0.0756,1.59983 0.17172,3.19872 0.28621,4.78994 z m -3.55171,-5.44012 c 0.0149,-0.12653 -0.0229,-0.25383 -0.057,-0.36431 -0.0378,-0.12193 -0.0669,-0.2274 -0.13579,-0.32356 -0.12441,-0.17289 -0.29642,-0.28798 -0.51733,-0.36289 -0.20599,-0.0697 -0.52536,-0.11603 -0.92501,-0.1217 -0.17059,-0.19796 -0.30048,-0.40932 -0.43109,-0.61448 3.65158,-0.9391 7.28877,-1.85809 10.75076,-2.76404 0.12789,0.20552 0.25784,0.40549 0.40649,0.60464 -0.27424,0.15201 -0.43746,0.30066 -0.52005,0.45999 -0.0841,0.16086 -0.0948,0.30969 -0.0209,0.43492 0.056,0.094 0.13727,0.17909 0.21165,0.26923 0.0741,0.0898 0.22292,0.2172 0.43646,0.37487 3.70337,2.73678 7.33324,5.39092 10.84101,7.96047 0.98859,0.72438 1.72748,1.13217 2.20936,1.26832 0.49981,0.14027 1.03637,0.13207 1.56763,-0.005 0.10482,0.18021 0.2107,0.36714 0.31606,0.55378 -3.63223,1.08422 -7.23933,2.18247 -10.95975,3.30679 -0.10707,-0.18563 -0.23295,-0.37705 -0.33995,-0.56287 0.56381,-0.24993 0.92134,-0.49945 1.07931,-0.75676 0.15803,-0.2582 0.11055,-0.55166 -0.1152,-0.89409 -0.57803,-0.8777 -1.80653,-1.4444 -3.72396,-1.69304 -1.89867,-0.24663 -4.01743,-0.095 -6.45437,0.48624 0.0622,0.90047 0.11568,1.80058 0.18676,2.70015 0.0266,0.34816 0.0811,0.65649 0.14228,0.92117 0.0631,0.27442 0.16523,0.48259 0.28781,0.64847 0.23689,0.32019 0.53921,0.51685 0.97868,0.59395 0.39794,0.0695 0.91161,0.0167 1.47814,-0.16204 0.12641,0.18847 0.23495,0.38408 0.38177,0.56417 -2.59633,0.78726 -5.26869,1.58803 -7.8993,2.39701 -0.16835,-0.1903 -0.29612,-0.38243 -0.40495,-0.58157 0.73452,-0.33713 1.23398,-0.74409 1.50374,-1.20025 0.27789,-0.4722 0.40661,-1.2961 0.33222,-2.49752 -0.2182,-3.51679 -0.40767,-7.06437 -0.60546,-10.64021 z m 42.40245,-8.85438 c -0.76396,2.92991 -1.48581,5.84944 -2.20464,8.76496 -2.91989,-2.09599 -5.88973,-4.23982 -8.89173,-6.43213 1.13152,2.564 2.22547,5.1083 3.35864,7.6063 0.42873,0.94559 0.82974,1.52426 1.21729,1.74181 0.399,0.22375 0.94093,0.25684 1.69386,0.12276 0.0831,0.18646 0.14736,0.3675 0.25065,0.54694 -1.95636,0.48442 -3.89149,0.96866 -5.82614,1.46428 -0.10435,-0.18275 -0.16871,-0.36656 -0.25318,-0.5565 0.53072,-0.20198 0.83239,-0.45144 0.9342,-0.7409 0.10099,-0.28945 -0.0355,-0.8548 -0.42354,-1.6997 -1.2653,-2.75448 -2.57739,-5.54211 -3.85438,-8.38619 -0.39563,-0.88023 -0.76402,-1.42198 -1.09259,-1.63381 -0.32656,-0.21053 -0.81162,-0.28244 -1.41195,-0.22793 -0.10748,-0.19696 -0.19325,-0.39983 -0.2802,-0.60316 3.43203,-0.70846 6.84848,-1.39503 10.10778,-2.08012 0.0853,0.19702 0.15018,0.4003 0.25548,0.5916 -0.17874,0.0938 -0.28722,0.19849 -0.35381,0.30703 -0.0697,0.11137 -0.0759,0.22039 -0.0317,0.34527 0.0205,0.0597 0.10936,0.14499 0.2274,0.2632 0.10819,0.10884 0.253,0.24463 0.45132,0.40649 1.04959,0.85581 2.1269,1.71876 3.18805,2.563 0.31636,-1.13582 0.61319,-2.27472 0.91061,-3.42364 -4.7e-4,-0.0122 -0.004,-0.0241 -0.001,-0.0351 0.12812,-0.38726 0.14564,-0.64363 0.10488,-0.76166 -0.0448,-0.12895 -0.147,-0.22776 -0.28781,-0.29577 -0.14428,-0.0699 -0.30414,-0.10889 -0.5257,-0.1286 -0.0846,-0.18982 -0.16889,-0.37841 -0.23342,-0.57927 2.96536,-0.61749 5.95562,-1.22714 8.88801,-1.83095 0.0625,0.19496 0.12641,0.38508 0.20952,0.56936 -0.48111,0.17473 -0.76066,0.39947 -0.85634,0.6789 -0.0971,0.28427 0.0346,0.84142 0.36721,1.68614 1.06362,2.70215 2.11775,5.358 3.19023,7.98524 0.32709,0.80077 0.62805,1.30277 0.89462,1.47531 0.29547,0.19112 0.70043,0.24162 1.21829,0.18357 0.0614,0.17779 0.12288,0.35553 0.22422,0.52689 -2.86131,0.70999 -5.69943,1.43236 -8.63412,2.15804 -0.0826,-0.1759 -0.18528,-0.35163 -0.24834,-0.53455 0.67318,-0.20534 1.04693,-0.47056 1.18184,-0.8016 0.13313,-0.32674 -0.008,-0.9568 -0.40933,-1.89572 -1.03236,-2.4127 -2.04401,-4.85802 -3.05325,-7.33944 l -0.001,-3.5e-4 z m 19.88722,6.23369 c -0.0405,-0.17242 -0.10016,-0.35063 -0.16051,-0.52335 0.45834,-0.16086 0.72149,-0.37623 0.81835,-0.6274 0.10182,-0.26822 0.068,-0.78909 -0.16186,-1.576 -0.75665,-2.58489 -1.53636,-5.2031 -2.32964,-7.85093 -0.24664,-0.82201 -0.49274,-1.3345 -0.75329,-1.54668 -0.24663,-0.20104 -0.62717,-0.29601 -1.1317,-0.28026 -0.062,-0.18947 -0.1234,-0.37287 -0.16499,-0.55632 3.99849,-0.65366 7.88201,-1.28955 11.68744,-1.91908 0.34461,-0.0572 0.58959,-0.13632 0.81133,-0.23643 0.22386,-0.1017 0.36584,-0.23094 0.46801,-0.38024 0.84006,1.39803 1.70023,2.78822 2.55681,4.15853 -0.22268,0.0629 -0.42484,0.12175 -0.62699,0.18044 -0.72037,-0.82891 -1.60626,-1.39408 -2.65337,-1.70925 -1.05059,-0.31671 -2.22087,-0.35883 -3.55608,-0.13697 -0.68675,0.11408 -1.11949,0.28208 -1.31362,0.51921 -0.1903,0.23159 -0.17856,0.67289 -0.002,1.31262 0.12411,0.44761 0.24115,0.88607 0.38142,1.32866 0.44277,-0.0789 0.92837,-0.15767 1.41078,-0.24545 0.86748,-0.15738 1.40611,-0.36455 1.63516,-0.61602 0.23678,-0.26067 0.32574,-0.67318 0.24764,-1.2643 0.16157,-0.0337 0.32326,-0.0615 0.50518,-0.089 0.77788,1.56078 1.55406,3.10765 2.34763,4.63463 -0.16104,0.0613 -0.30214,0.12393 -0.44312,0.18092 -0.53822,-0.7409 -1.11778,-1.21682 -1.72041,-1.43886 -0.5821,-0.21454 -1.36629,-0.23241 -2.31424,-0.0582 -0.44159,0.0809 -0.86549,0.15078 -1.28838,0.22658 0.39883,1.40086 0.8078,2.78975 1.21399,4.17357 0.20835,0.70998 0.47622,1.15812 0.83569,1.34057 0.33878,0.17172 0.94058,0.17856 1.76111,0.01 1.30277,-0.26804 2.37825,-0.7941 3.2163,-1.60154 0.82001,-0.79074 1.44287,-1.90091 1.90003,-3.30496 0.20115,-0.004 0.4023,-0.0119 0.62387,-0.0206 -0.22269,1.80541 -0.44224,3.5969 -0.64292,5.38526 -0.17992,-0.0398 -0.33925,-0.0583 -0.51904,-0.0563 -0.16098,0.002 -0.41953,0.0408 -0.74155,0.1073 -3.90441,0.80997 -7.82385,1.63906 -11.8975,2.47994 z m 21.18627,-14.58172 c -0.14782,-0.77204 -0.315,-1.26294 -0.49981,-1.46327 -0.19396,-0.21006 -0.50164,-0.30869 -0.92783,-0.32155 -0.0386,-0.1736 -0.0549,-0.34231 -0.0925,-0.52122 2.78846,-0.33394 5.53946,-0.6648 8.25164,-0.98871 0.0157,0.17272 0.0324,0.33712 0.089,0.50648 -0.16475,0.0807 -0.25984,0.16988 -0.33228,0.26586 -0.0761,0.10051 -0.10854,0.19313 -0.0883,0.29181 0.0154,0.0796 0.0727,0.17839 0.15503,0.28256 0.0945,0.11992 0.22339,0.20953 0.35765,0.30515 1.04026,0.74161 2.06979,1.48551 3.10233,2.21644 -0.10417,-0.60552 -0.1985,-1.21245 -0.29064,-1.82765 -0.11255,-0.74626 -0.27589,-1.21381 -0.44678,-1.41632 -0.16369,-0.19413 -0.45934,-0.30013 -0.84542,-0.31299 -0.0366,-0.16841 -0.0721,-0.33093 -0.0876,-0.50347 1.24484,-0.15337 2.5125,-0.29966 3.77982,-0.45297 0.0145,0.16989 0.0304,0.33505 0.0859,0.49645 -0.39062,0.107 -0.61902,0.26904 -0.72803,0.50111 -0.10955,0.23111 -0.0999,0.71954 0.0155,1.45979 0.37293,2.40131 0.77806,4.77691 1.16414,7.13256 0.11639,0.71182 0.23643,1.17051 0.39711,1.34907 0.16842,0.18694 0.45316,0.27023 0.81499,0.26787 0.0142,0.16175 0.0487,0.31925 0.0838,0.47675 -1.29438,0.21855 -2.62623,0.44041 -3.97831,0.6543 -0.0358,-0.16021 -0.0505,-0.31972 -0.0855,-0.48406 0.50518,-0.0949 0.81281,-0.24734 0.95863,-0.45433 0.14765,-0.21089 0.17708,-0.59614 0.097,-1.15642 -0.0195,-0.1306 -0.0521,-0.26592 -0.0679,-0.40136 -2.90331,-2.01706 -5.94016,-4.10502 -8.98964,-6.24838 0.41386,2.44049 0.84825,4.85035 1.25645,7.23515 0.14282,0.83522 0.35063,1.36777 0.58588,1.59134 0.2346,0.22291 0.61484,0.30768 1.13754,0.25849 0.0154,0.16758 0.0522,0.33057 0.0682,0.49332 -1.39036,0.2297 -2.79778,0.46731 -4.22595,0.70226 -0.0375,-0.16505 -0.0537,-0.33057 -0.0901,-0.50099 0.3826,-0.12642 0.65731,-0.30279 0.77334,-0.5414 0.11474,-0.2366 0.0865,-0.72875 -0.0493,-1.48115 -0.44242,-2.44467 -0.8889,-4.9124 -1.34807,-7.41052 z m 20.53852,6.55353 c -0.0341,-0.15331 -0.0468,-0.31069 -0.04,-0.46837 0.34632,-0.0934 0.57491,-0.24781 0.68492,-0.46418 0.10937,-0.21554 0.14464,-0.67283 0.0809,-1.3775 -0.20882,-2.2936 -0.37587,-4.61369 -0.57136,-6.95265 -0.0609,-0.72721 -0.17473,-1.17919 -0.32892,-1.37786 -0.1555,-0.20015 -0.39511,-0.30662 -0.76096,-0.34095 -0.0139,-0.16016 -0.0278,-0.32539 -0.0413,-0.48943 1.9448,-0.14228 3.8509,-0.27554 5.73736,-0.41298 -0.008,0.16015 0.0254,0.32154 0.0386,0.47857 -0.3314,0.086 -0.56187,0.22888 -0.67471,0.44277 -0.1112,0.21036 -0.13409,0.67654 -0.0861,1.38983 0.15485,2.30251 0.32391,4.58148 0.5227,6.8437 0.0611,0.69341 0.16523,1.13282 0.29831,1.31627 0.13078,0.1801 0.38926,0.27861 0.73093,0.29683 -0.009,0.15396 0.005,0.30397 0.0373,0.4538 -1.86428,0.22304 -3.72603,0.44142 -5.6277,0.66215 z m 21.75008,-9.07158 c -0.18611,0.0419 -0.37251,0.0836 -0.55915,0.12559 -0.52188,-0.99243 -1.04941,-1.68165 -1.57058,-2.08012 -0.50901,-0.38915 -1.10728,-0.57691 -1.76429,-0.5473 -0.88336,0.0396 -1.59399,0.4003 -2.13528,1.07484 -0.54529,0.67837 -0.81935,1.54922 -0.79711,2.61768 0.0283,1.36565 0.44548,2.47127 1.23015,3.33121 0.76556,0.83976 1.70106,1.21883 2.81937,1.13052 0.73193,-0.0577 1.35261,-0.29766 1.85142,-0.70043 0.51167,-0.41387 0.9437,-0.99343 1.24336,-1.7571 0.1398,0.026 0.28026,0.0524 0.42071,0.0786 -0.39045,1.16096 -0.77971,2.3254 -1.16815,3.48871 -0.13963,-0.0375 -0.29914,-0.058 -0.43941,-0.0687 -0.16086,-0.0129 -0.30285,-0.0107 -0.44478,0.004 -0.20351,0.0206 -0.59112,0.094 -1.14674,0.21956 -0.57307,0.12942 -1.04392,0.20717 -1.40947,0.23878 -1.90888,0.16452 -3.48954,-0.2796 -4.72358,-1.31733 -1.26696,-1.06493 -1.92009,-2.52407 -1.97176,-4.39596 -0.0475,-1.71899 0.44348,-3.04264 1.43337,-3.969 0.97921,-0.91715 2.48124,-1.40888 4.4343,-1.48097 0.43091,-0.016 0.94423,-0.005 1.51624,0.0296 0.5926,0.0358 0.94111,0.0485 1.08539,0.0439 0.1637,-0.005 0.32875,-0.0389 0.49828,-0.0818 0.20605,-0.0525 0.41888,-0.12204 0.6513,-0.21784 0.31022,1.4198 0.6192,2.83405 0.9473,4.23409 l -5.9e-4,-3e-4 z m 5.4331,5.97934 c -0.008,-0.14417 0.003,-0.28409 -0.005,-0.42838 0.28828,-0.0626 0.49043,-0.18027 0.59708,-0.36691 0.10618,-0.18623 0.16423,-0.59608 0.18328,-1.22868 0.0612,-2.06136 0.12523,-4.13399 0.18676,-6.22095 0.0192,-0.64846 -0.0227,-1.06144 -0.12352,-1.24973 -0.0957,-0.17809 -0.26374,-0.29329 -0.56789,-0.35116 0.0116,-0.14146 0.003,-0.28657 0.0142,-0.43103 1.52214,0.003 3.02506,10e-4 4.52827,10e-4 -0.013,0.13797 -0.005,0.28043 -0.0169,0.4187 -0.27271,0.0529 -0.46,0.1736 -0.56535,0.35051 -0.11173,0.18711 -0.18611,0.58706 -0.20918,1.22667 -0.0218,0.58523 -0.0402,1.16279 -0.0498,1.74483 0.20268,-0.21266 0.4023,-0.42301 0.60817,-0.63608 0.17638,-0.1831 0.40614,-0.41835 0.69943,-0.7163 0.72202,-0.73458 1.08858,-1.22266 1.09761,-1.47247 0.004,-0.12925 -0.0382,-0.23431 -0.11491,-0.31872 -0.0734,-0.0803 -0.19313,-0.13927 -0.33359,-0.18192 0.0122,-0.1378 0.005,-0.27925 0.0171,-0.42053 1.33905,-3.6e-4 2.67927,4.7e-4 3.99855,-5.9e-4 -0.0132,0.13762 -0.0267,0.27677 -0.0192,0.41168 -0.39392,0.0264 -0.83457,0.18729 -1.32111,0.45834 -0.51367,0.28592 -1.00464,0.65749 -1.50291,1.12834 -0.22157,0.20935 -0.42891,0.41888 -0.65266,0.62687 0.4928,0.43162 0.92872,1.01331 1.33386,1.73917 0.39947,0.71618 0.74679,1.57736 1.04109,2.57055 0.0592,0.20103 0.13827,0.47356 0.22569,0.82136 0.24952,0.99006 0.62274,1.5307 1.10044,1.61995 -0.014,0.13661 -0.0271,0.27075 -0.0201,0.4082 -1.42617,0.0669 -2.84998,0.13945 -4.29485,0.20846 0.0127,-0.13673 0.005,-0.27689 0.0182,-0.41315 0.14446,-0.0396 0.25235,-0.10064 0.32125,-0.18694 0.068,-0.0868 0.0918,-0.22174 0.097,-0.39381 0.0147,-0.4889 -0.1276,-1.13653 -0.47091,-1.95689 -0.34225,-0.81764 -0.79074,-1.62125 -1.35491,-2.39996 -0.1749,0.1289 -0.34945,0.25849 -0.52424,0.38845 -0.0305,1.03902 -0.0697,2.07374 -0.10966,3.10793 -0.0251,0.62369 0.0298,1.01968 0.11775,1.19594 0.0838,0.169 0.27919,0.27489 0.53957,0.31064 -0.013,0.1408 -0.0249,0.27807 -0.017,0.41539 -1.48469,0.0754 -2.96784,0.14795 -4.45135,0.22121 z m 14.40628,-0.69212 c 0.0139,-0.1309 0.0286,-0.26515 0.0425,-0.39546 0.30769,-0.0297 0.51539,-0.14912 0.64581,-0.34042 0.13526,-0.1995 0.22941,-0.63342 0.28456,-1.31062 0.0679,-0.83876 0.14099,-1.681 0.21189,-2.52324 -0.52653,-1.19788 -1.06581,-2.41034 -1.60473,-3.62833 -0.15986,-0.36119 -0.31824,-0.61467 -0.45781,-0.75028 -0.16074,-0.15685 -0.3455,-0.24427 -0.58776,-0.29677 0.0137,-0.13715 0.0279,-0.27289 0.0419,-0.40886 1.58267,0.0589 3.12552,0.11739 4.64784,0.17491 -0.015,0.13243 -0.0296,0.26568 -0.0232,0.39563 -0.18694,0.008 -0.36249,0.058 -0.47185,0.16087 -0.0977,0.0914 -0.16323,0.2366 -0.17042,0.42371 -0.004,0.103 0.005,0.22068 0.042,0.36367 0.0349,0.1388 0.0774,0.29081 0.15531,0.45934 0.27023,0.58558 0.52825,1.16698 0.79193,1.74371 0.30184,-0.49533 0.60746,-0.99178 0.90913,-1.49324 0.15449,-0.2582 0.2602,-0.46737 0.34013,-0.63236 0.0816,-0.16959 0.11804,-0.3114 0.13054,-0.42024 0.0186,-0.16587 -0.0274,-0.29411 -0.10063,-0.38289 -0.0719,-0.0868 -0.21018,-0.14865 -0.39281,-0.17809 -0.006,-0.13261 0.01,-0.26468 0.0244,-0.39682 0.94677,0.0392 1.89301,0.0757 2.86019,0.1089 -0.0157,0.12971 -0.0308,0.26085 -0.0252,0.38808 -0.2799,0.0911 -0.52287,0.24764 -0.756,0.45846 -0.22887,0.2067 -0.4919,0.52789 -0.77234,0.95863 -0.6461,0.98942 -1.29686,1.97848 -1.94267,2.97038 -0.0744,0.83457 -0.14175,1.67062 -0.20216,2.501 -0.0473,0.65749 -0.0439,1.08303 0.0573,1.28566 0.0969,0.19331 0.29017,0.30485 0.59178,0.32963 -0.0151,0.12753 -0.0294,0.25896 -0.0243,0.38708 -1.40222,0.0139 -2.82338,0.0324 -4.24536,0.048 z m 1.785,-10.88147 c 0.63206,-0.67053 1.27734,-1.35143 1.92215,-2.0124 0.24628,-0.253 0.44005,-0.41115 0.5959,-0.49445 0.15367,-0.0826 0.30503,-0.11603 0.44967,-0.10954 0.18611,0.008 0.34863,0.0891 0.47185,0.24799 0.11273,0.14612 0.16989,0.33677 0.14529,0.55113 -0.0187,0.16252 -0.0839,0.30315 -0.1946,0.42791 -0.10453,0.11821 -0.27542,0.24799 -0.51957,0.36667 -0.72185,0.35181 -1.44753,0.70297 -2.14949,1.05731 -0.24764,-0.01 -0.49462,-0.0221 -0.7212,-0.0346 z"
       style="fill:#ffffff;fill-opacity:1;fill-rule:evenodd;stroke:#ffffff;stroke-width:0.334407;stroke-linecap:butt;stroke-linejoin:miter;stroke-miterlimit:22.9256;stroke-dasharray:none;stroke-opacity:1" />
    <path
       id="path9"
       d="m 233.77745,547.10613 -18.4965,33.41398 c -0.4948,0.9496 -0.67991,1.95589 -0.59479,3.02907 -0.69907,19.722 10.97615,31.34761 18.26775,22.85736 7.64411,-20.12677 10.87433,-39.69044 4.39501,-58.01505 0.76568,-3.77197 -2.06189,-4.48332 -3.57147,-1.28536 z"
       style="fill:#ffffff;fill-opacity:1;fill-rule:evenodd;stroke:#ffffff;stroke-width:0.334407;stroke-linecap:butt;stroke-linejoin:miter;stroke-miterlimit:22.9256;stroke-dasharray:none;stroke-opacity:1" />
    <text
       xml:space="preserve"
       style="font-weight:500;font-size:64px;font-family:'Roboto Condensed';-inkscape-font-specification:'Roboto Condensed,  Medium';text-align:start;writing-mode:lr-tb;direction:ltr;text-anchor:start;fill:#ffffff;fill-opacity:1;stroke:#ffffff;stroke-opacity:1"
       x="562.41919"
       y="512.64783"
       id="text10"><tspan
         id="tspan10"
         x="562.41919"
         y="512.64783"
         style="font-style:normal;font-variant:normal;font-weight:normal;font-stretch:normal;font-size:64px;font-family:Goldman;-inkscape-font-specification:Goldman;fill:#ffffff;stroke:#ffffff;stroke-opacity:1">GABIONOVÉ ZDI</tspan><tspan
         x="562.41919"
         y="592.64783"
         id="tspan11"
         style="font-style:normal;font-variant:normal;font-weight:normal;font-stretch:normal;font-size:64px;font-family:Goldman;-inkscape-font-specification:Goldman;fill:#ffffff;stroke:#ffffff;stroke-opacity:1">ZEMNÍ PRÁCE</tspan><tspan
         x="562.41919"
         y="672.64783"
         id="tspan12"
         style="font-style:normal;font-variant:normal;font-weight:normal;font-stretch:normal;font-size:64px;font-family:Goldman;-inkscape-font-specification:Goldman;fill:#ffffff;stroke:#ffffff;stroke-opacity:1">KAMENICKÝ</tspan></text>
  </g>
</svg>
