<?xml version="1.0" encoding="UTF-8" standalone="no"?>
<!-- Created with Inkscape (http://www.inkscape.org/) -->

<svg
   version="1.1"
   id="svg1"
   width="1059.0221"
   height="567.45923"
   viewBox="0 0 1059.0221 567.45924"
   xmlns="http://www.w3.org/2000/svg"
   xmlns:svg="http://www.w3.org/2000/svg">
  <defs
     id="defs1" />
  <g
     id="layer-Pr13"
     transform="translate(-66.728179,-446.54827)">
    <path
       id="path1"
       d="m 55.7974,589.2888 c -7.0078,-2.033 -7.0996,-8.0266 -1.3053,-11.4471 75.4242,-54.4196 160.0537,-62.919 251.4722,-37.5381 6.3731,2.2966 3.988,9.7665 -1.6798,10.5778 -2.761,0.3441 -5.5216,0.6879 -8.2834,1.0318 64.0706,23.9975 123.5687,40.7106 194.8952,54.4867 100.9647,11.751 161.8188,12.8525 225.2506,-9.7084 l -1.1795,-3.8653 c 13.028,-13.3937 24.1605,-41.0103 34.5489,-74.2082 2.3185,-4.629 5.8958,-3.9671 6.842,-0.1877 l 6.3907,57.8024 c 3.6556,-1.8861 7.3466,-3.8463 11.0843,-5.8943 13.9462,4.5314 28.1021,8.024 42.8896,8.3613 0.5746,0.8629 1.1509,1.7257 1.7263,2.5883 -1.4592,2.5577 -2.9168,5.1151 -4.3755,7.6729 -4.2035,0.4552 -8.4073,0.9102 -12.6108,1.3651 34.6178,27.7356 44.898,59.936 42.143,94.5286 -1.698,8.1769 -5.3904,9.1083 -11.2865,2.0478 -6.7722,-7.2221 -13.5442,-14.4459 -20.3162,-21.6692 -0.3778,3.8648 -0.7543,7.7293 -1.1315,11.594 -16.6343,29.2521 -13.6874,57.3024 0.7526,84.6496 0.288,3.1692 -5.3743,10.3802 -10.143,5.8054 -2.4953,-1.7643 -3.6697,-1.2337 -2.5373,3.3103 0.5054,7.6804 -3.871,8.8066 -10.6211,6.7484 -6.404,-2.8409 -12.8058,-5.6829 -19.209,-8.5243 -6.8828,-3.1814 -12.3023,-1.4295 -13.8917,13.2247 -0.7061,2.5566 0.7789,4.5431 2.8752,6.3717 -4.5814,24.1796 -11.4908,48.2267 -22.47,72.0437 -1.9993,5.9167 -10.1517,5.4944 -12.4002,0.8461 -3.4517,-7.1059 -6.9026,-14.2129 -10.3535,-21.3193 -3.0005,7.245 -8.3245,8.6799 -12.7732,6.3127 -19.0684,-12.4016 -38.1359,-24.8034 -57.204,-37.2053 -2.2748,0.0644 -4.5482,0.1282 -6.8221,0.1922 0.7072,4.3691 1.4139,8.7372 2.1208,13.1054 -3.607,16.5595 -7.8944,33.1189 -14.3027,49.6781 -1.4208,6.8363 -6.5475,8.6451 -11.4667,3.2383 -18.495,-23.8913 -36.9882,-47.7837 -55.4823,-71.6746 -4.6253,-6.6906 -12.8477,-7.1912 -16.5716,-1.3658 -1.7555,4.9941 -3.5076,9.9856 -5.2617,14.9792 -0.877,6.9139 0.8989,13.5127 9.222,19.3379 9.5428,4.4581 12.0294,11.4764 9.5771,20.287 -9.1905,38.2317 -59.5139,37.8607 -60.1894,-8.8688 -0.1846,-12.2283 -0.3691,-24.4573 -0.5536,-36.6859 -0.2174,-5.5517 -3.14,-6.465 -6.2306,-3.0751 -6.8913,5.7833 -12.9234,12.3988 -17.1071,20.8112 -2.3658,3.0174 -5.1315,4.3174 -8.8489,1.5463 -6.5191,-4.4383 -13.0345,-8.8759 -19.5514,-13.3138 -2.1342,2.7306 -4.2658,5.4606 -6.3986,8.1913 -5.1081,5.5204 -10.6977,5.9728 -11.287,1.3651 -1.0908,-3.6904 -3.1677,-6.7617 -6.7723,-8.8744 -4.5082,7.4948 -9.0167,14.9888 -13.5249,22.4821 3.9767,0.9672 9.2497,-2.7011 7.139,3.4631 -13.7902,36.8105 -34.3411,67.7948 -59.8223,94.5289 -3.5623,3.4311 -7.5617,2.3729 -6.0506,-3.4234 7.4614,-41.6392 13.2146,-83.2799 16.5841,-124.9202 0.008,-5.1004 2.3012,-7.4112 7.3324,-10.2334 9.2891,-4.4957 12.9764,-3.3936 12.4061,6.6515 2.069,-3.4087 4.1417,-6.8187 6.2118,-10.2282 -20.7504,-9.8363 -41.4977,-19.6736 -62.2476,-29.5104 -9.4502,-2.6056 -13.6236,0.3693 -12.437,9.021 4.4135,18.7784 8.5441,37.6083 1.3189,58.5521 -2.9914,6.2436 -6.1103,7.1082 -9.3968,1.0213 -3.6978,-5.2931 -7.3959,-10.5874 -11.0937,-15.8802 -3.566,-3.9549 -6.4967,-3.4637 -8.8792,0.8904 -2.0608,7.9021 -4.1211,15.804 -6.1818,23.7058 4.2925,1.5177 6.2319,4.2565 6.389,7.9186 -0.2135,2.9761 -0.4255,5.9525 -0.6384,8.9286 -0.4102,8.5512 -2.1095,10.0295 -10.0519,12.5832 -6.4395,2.7179 -8.6553,0.8408 -7.708,-4.4832 -3.8256,0.4487 -7.577,0.7554 -9.6126,-2.312 -2.5769,12.0195 -7.55,23.313 -12.7975,34.5243 -2.06,7.4126 -11.3349,5.51 -16.2771,7.261 -6.9653,2.8544 -13.9281,5.7078 -20.8914,8.5617 -6.4049,2.6104 -14.362,-1.258 -22.2681,-4.9136 5.0006,8.413 10.9899,16.2879 18.9465,23.0922 3.3673,5.3524 -11.4443,6.336 -15.9432,0.1293 -32.1148,-23.2611 -57.6108,-52.528 -75.2627,-88.9098 -7.7128,-13.4408 -5.718,-25.6258 6.0375,-36.5446 0.4748,-11.9959 3.9028,-28.112 -3.7443,-28.7725 -7.5024,8.9887 -17.2233,14.9562 -28.0632,19.402 -5.7912,2.5308 -8.6457,0.3994 -9.9868,-4.1346 -6.5534,-42.2498 3.621,-81.8745 25.9934,-119.5832 -3.0506,3.7347 -9.7971,3.242 -7.6929,-2.9492 18.5318,-27.4121 40.2386,-51.9434 67.6712,-71.2811 C 126.8844,592.1739 91.3416,590.0936 55.7974,589.2888 Z m 370.9511,223.0557 -2.3054,1.1948 4.2826,5.3771 2.6334,-2.3896 z m 86.7855,28.3794 c 2.7366,-4.2477 5.7496,-8.4966 8.4856,-12.7446 2.9364,5.3136 7.4001,10.2487 14.0473,14.8887 6.5991,6.5837 4.6653,14.9933 -3.1989,24.6047 -8.3143,6.8097 -17.8361,6.2331 -21.1408,-4.7945 -3.8766,-9.3489 -1.7472,-15.9761 1.8068,-21.9543 z M 274.0331,818.7613 c -4.0983,-0.2055 -5.8413,1.141 -6.6115,3.1303 1.6277,0.1746 3.2584,0.3478 4.8872,0.5216 0.5755,-1.2166 1.15,-2.4347 1.7243,-3.6519 z m 0.6367,33.6561 c -0.5754,3.9991 -0.5834,8.7185 -1.158,12.7179 1.1492,-0.6081 1.3936,-0.8056 2.5433,-1.4139 0.0958,-3.3908 0.4181,-7.6054 0.5136,-10.9962 -0.6724,6e-4 -1.2282,-0.3081 -1.8989,-0.3078 z m -6.6832,-13.1049 c -2.9203,6.0653 -6.6805,11.7471 -10.8105,17.2627 1.0539,0.8513 2.1081,1.7025 3.162,2.5535 3.3392,-6.1855 6.6796,-12.373 10.0191,-18.5596 -0.7903,-0.4187 -1.5798,-0.8379 -2.3706,-1.2566 z m -133.6868,8.663 c -5.6766,-24.7074 -7.5523,-51.022 -1.7248,-80.5992 4.4073,-6.173 8.8174,-12.3457 13.2264,-18.5193 -11.2076,45.3662 -17.2485,92.7683 24.7258,159.1109 -16.5475,-16.672 -30.7009,-34.973 -41.1149,-55.8193 3.4858,1.6424 5.2356,0.4456 4.8875,-4.1731 z m 58.2906,-249.1986 c -40.5015,-14.0221 -78.4826,-18.9042 -114.9713,-18.3625 61.852,-42.8919 129.9456,-53.7027 203.8368,-34.7046 -11.4182,2.0801 -9.7466,5.5656 -1.9723,9.7067 92.4576,43.8582 194.1452,71.8736 308.1864,72.3787 83.3643,0.3697 113.2015,-13.6222 149.6919,-30.5096 0.019,-0.5102 -0.009,-1.0539 -0.0859,-1.633 0.2682,-3.3335 -1.531,-3.2029 -4.6097,-0.9281 -2.6515,1.5903 -3.1444,-1.7042 -2.8808,-2.9103 10.08,-15.9494 15.8349,-32.6231 20.8851,-49.4135 l 2.5291,47.6727 c 6.4295,-2.8417 13.2587,-5.7191 20.745,-8.581 3.9872,0.7427 7.9762,1.4839 11.9636,2.2258 -7.2263,1.2739 -7.2504,3.6204 -1.0009,8.4444 18.2319,17.3083 38.4072,26.2667 49.6469,72.9845 -5.6886,-6.8321 -11.3769,-13.6656 -17.066,-20.4988 3.2176,0.2407 4.0187,-0.8838 2.4709,-4.1655 -3.8605,-17.8574 -19.709,-30.9546 -34.465,-44.4291 -2.1277,0.233 -2.3975,1.1764 -1.3048,4.7307 12.7032,20.6116 21.5737,41.7569 13.7804,65.4971 -1.1305,4.1037 -1.694,8.0711 1.9944,11.0239 -12.7933,17.0266 -13.0189,37.5608 -8.3971,59.4482 -13.2366,-16.49 -23.4487,-38.0083 -20.5871,-81.2721 1.8776,0.1925 3.3494,-0.9683 4.4696,-3.2964 3.9153,-9.332 7.8302,-18.6633 11.746,-27.995 1.3192,-2.7167 1.612,-4.8342 -0.6035,-5.4887 -7.5274,-8.1383 -15.0534,-16.2777 -22.58,-24.4168 -3.755,-2.1458 -7.4086,-1.1574 -7.5339,3.0804 -1.3629,1.9604 1.9074,12.6471 -1.0783,26.881 -2.6484,12.6223 -3.8506,28.9998 3.0209,46.5088 9.7359,32.3048 8.3766,66.9751 10.495,72.3975 0.235,0.4115 0.2602,0.3903 0.7033,0.6066 4.208,1.6582 8.4172,3.3165 12.6249,4.9748 3.3035,1.2478 4.7188,6.3867 5.1469,13.5637 -9.7838,-4.9064 -20.0214,-8.9906 -30.8498,-12.0004 -1.8731,-13.8161 -5.6222,-27.349 -10.6327,-40.6905 -3.9765,-11.1195 -18.4351,-11.3179 -24.6348,1.959 -3.6164,7.9342 -7.2332,15.8686 -10.8502,23.8028 -3.9483,7.9257 -2.9012,15.7181 2.039,23.4071 6.0916,9.0363 10.8127,17.9821 16.905,27.0173 0.8983,7.5719 6.7889,13.4113 10.531,3.4135 1.8972,1.1585 4.8724,1.8723 3.6328,6.2325 -3.9378,17.5541 -8.5756,35.7497 -14.0116,53.7568 -9.2903,-21.4509 -16.9186,-42.3771 -24.2079,-62.4674 -0.8714,-2.9032 -2.0863,-3.7318 -3.8457,-3.4064 -2.9983,-4.9946 -5.8856,-4.1624 -4.3453,0.3966 1.0982,2.982 0.5057,5.5451 -1.0057,7.8814 2.0013,10.7008 2.3593,21.6054 -0.8603,32.9525 -0.5579,2.4429 0.6381,4.3073 5.3036,5.0281 1.0743,1.4536 -0.8002,2.232 -1.9219,1.478 -22.3665,-14.4028 -43.6643,-28.2407 -66.0305,-42.6441 1.0298,-8.3872 -5.4309,-12.1315 -7.4265,-5.065 -1.2141,4.8881 -2.4282,9.775 -3.642,14.6625 -2.548,-2.5753 -5.0966,-5.1517 -7.645,-7.7269 -4.8257,-3.7035 -8.7514,-3.3546 -9.127,2.2257 -0.7512,4.339 -1.9587,9.2429 -4.1357,13.5822 -3.2069,2.6045 -3.248,4.7469 -0.2855,7.5657 3.9342,4.5196 7.8687,9.0374 11.8032,13.5558 2.4506,2.9554 3.3985,1.4332 3.9801,-2.6895 1.5733,-5.4989 6.0384,-5.1743 4.7934,1.1401 -2.2379,9.4711 -4.4745,18.94 -6.7116,28.4103 -30.4342,-38.814 -60.8672,-77.6285 -91.3005,-116.4428 -2.1716,-2.4573 -3.3837,-2.5248 -3.8792,0.5919 -0.349,13.6225 -1.1764,27.3181 -1.5248,40.9408 0.1205,1.0191 -1.1951,12.5342 9.6988,1.2456 1.2537,1.8206 1.2313,4.3647 1.1287,6.8363 -8.416,12.7431 -16.8296,25.4846 -25.2442,38.2269 0.8731,-21.5785 1.7464,-43.1578 2.6198,-64.7365 -0.8734,-2.1694 -2.0112,-2.4248 -3.3191,-1.4366 -11.8534,20.1724 -23.9165,40.2482 -38.7666,59.0601 1.2268,1.5435 1.0981,3.7369 -1.5852,1.9494 -11.9613,-6.9954 -23.4436,-14.3535 -35.4044,-21.3494 -4.3285,-2.2474 -7.7482,-1.7496 -9.6622,3.3037 -11.0687,19.9287 -22.1366,39.856 -33.2053,59.7841 -3.8818,9.0644 -1.9049,10.2376 7.494,1.4131 -10.6974,23.3237 -22.2977,42.3371 -34.6037,57.9946 8.0019,-36.6353 13.6018,-73.9979 16.2374,-112.2562 0.4643,5.5768 0.9289,11.1532 1.3935,16.73 1.2986,1.8684 2.5974,1.999 3.896,0.5814 8.3806,-12.992 16.7646,-25.9849 25.1464,-38.9775 -63.5281,-23.1491 -124.5776,-49.2948 -176.0491,-87.0273 7.7349,2.626 15.4707,0.3685 23.2056,-4.0479 3.9421,-1.9564 7.4894,2.1541 4.7103,3.4135 -4.8628,1.6676 -3.9464,2.2397 -0.3351,3.9657 3.2539,5.8515 13.3668,8.7049 20.8696,11.0718 6.7648,-12.2479 6.3649,-25.9747 3.0855,-40.2945 -6.626,-14.6687 -16.7324,-19.5599 -32.9429,-7.3111 -92.8672,60.19 -79.4942,154.3847 -52.4752,199.6112 5.7064,11.238 12.4364,10.8712 19.7818,3.5224 19.7862,-25.7925 29.3811,-70.9988 30.2179,-109.6149 1.9897,0.714 2.3222,2.2623 2.1218,4.0793 4.4206,1.6739 8.8835,2.8148 13.8815,2.3346 20.7944,5.9015 32.9114,21.7933 39.7077,43.8134 -8.2777,-9.7509 -17.9087,-17.7791 -29.5183,-23.2979 -8.0155,-2.651 -11.9973,2.5342 -14.2741,11.0384 -2.427,35.1445 -6.1761,69.601 -20.1243,98.7721 -3.5952,-0.7659 -7.1895,-0.868 -10.785,2.0908 -31.5618,17.1244 -47.1393,-2.6592 -60.5948,-27.3455 -23.716,-49.2418 -11.4673,-102.1678 6.2822,-155.657 0.1871,-4.3052 -3.3296,-4.3531 -7.0161,-0.0813 -9.21,14.9876 -18.6094,29.8352 -30.3344,42.9973 0.5284,-2.4162 1.0582,-4.8333 1.5872,-7.2496 1.4794,-3.8835 -2.2763,-5.3172 -3.0691,-3.7896 -0.6883,1.6024 -1.3751,3.2048 -2.0625,4.807 -0.04,-0.2254 -3.7086,0.6344 -4.6375,1.8649 -10.0244,13.2809 -20.3216,22.6032 -32.8413,31.6516 -2.4996,2.2337 -3.7276,0.6375 -3.6397,-1.1375 1.0227,-62.0907 18.2673,-122.7813 103.7137,-177.5787 6.0922,-3.6691 6.8241,-6.8334 0.798,-9.3591 l -0.002,8e-4 z"
       style="fill:#cdb500;fill-opacity:1;fill-rule:evenodd;stroke:#cdb500;stroke-width:0.5669;stroke-linecap:butt;stroke-linejoin:miter;stroke-miterlimit:22.9256;stroke-dasharray:none;stroke-opacity:1"
       transform="matrix(1.3333333,0,0,-1.3333333,0,1700.7875)" />
    <path
       id="path2"
       d="m 331.575,643.5442 -9.5493,-2.0914 2.3054,5.6767 z"
       style="fill:#cdb500;fill-opacity:1;fill-rule:evenodd;stroke:#cdb500;stroke-width:0.5669;stroke-linecap:butt;stroke-linejoin:miter;stroke-miterlimit:22.9256;stroke-dasharray:none;stroke-opacity:1"
       transform="matrix(1.3333333,0,0,-1.3333333,0,1700.7875)" />
    <path
       id="path3"
       d="m 160.4588,618.1013 c -15.7601,12.3508 -31.1981,25.0642 -44.2488,40.4861 3.0855,-1.1707 6.1013,-2.7249 8.8492,-5.7342 9.5941,-11.2949 21.1646,-21.0538 33.1239,-30.509 0.7589,-1.4145 1.5174,-2.829 2.2757,-4.2429 z"
       style="fill:#cdb500;fill-opacity:1;fill-rule:evenodd;stroke:#cdb500;stroke-width:0.5669;stroke-linecap:butt;stroke-linejoin:miter;stroke-miterlimit:22.9256;stroke-dasharray:none;stroke-opacity:1"
       transform="matrix(1.3333333,0,0,-1.3333333,0,1700.7875)" />
    <path
       id="path4"
       d="m 556.7159,712.5803 c -2.0959,4.2063 -5.4198,8.1343 -9.2565,11.9461 12.8732,23.3421 25.749,46.6826 38.6237,70.0242 2.0789,4.0252 5.1806,3.2394 5.2478,-0.6797 -0.9031,-2.9866 -1.8045,-5.9746 -2.7074,-8.9615 12.2457,-21.1935 19.6351,-42.7266 26.2086,-64.3158 0.419,-7.0438 -1.73,-10.4876 -6.0951,-10.8224 -15.1687,-0.3739 -30.3366,-0.7492 -45.5057,-1.124 -3.6705,0.3408 -5.8892,1.6206 -6.5154,3.9331 z"
       style="fill:#cdb500;fill-opacity:1;fill-rule:evenodd;stroke:#cdb500;stroke-width:0.5669;stroke-linecap:butt;stroke-linejoin:miter;stroke-miterlimit:22.9256;stroke-dasharray:none;stroke-opacity:1"
       transform="matrix(1.3333333,0,0,-1.3333333,0,1700.7875)" />
    <path
       id="path5"
       d="m 466.0648,702.8566 c -8.4257,19.1693 -17.1904,38.2343 -26.9215,57.0076 7.4095,13.1207 14.8198,26.2395 22.2301,39.359 19.8922,-18.8209 32.7439,-41.8107 42.6283,-66.5543 2.6637,-5.584 3.4934,-10.912 0.5012,-15.7062 -5.8394,-10.463 -14.6472,-17.3809 -28.7507,-17.9773 -4.6043,-0.1693 -7.8548,0.045 -9.6874,3.8712 z"
       style="fill:#cdb500;fill-opacity:1;fill-rule:evenodd;stroke:#cdb500;stroke-width:0.5669;stroke-linecap:butt;stroke-linejoin:miter;stroke-miterlimit:22.9256;stroke-dasharray:none;stroke-opacity:1"
       transform="matrix(1.3333333,0,0,-1.3333333,0,1700.7875)" />
    <path
       id="path6"
       d="m 409.1542,677.5699 c -1.2303,31.8039 -2.6374,63.6066 -8.0113,95.4102 -0.631,6.8431 5.6877,7.2003 8.0121,1.1667 13.2806,-26.3199 19.0559,-54.2109 25.49,-81.9643 7.4197,-1.7416 9.4011,-6.1475 2.2487,-7.132 -6.1407,-4.132 -12.2797,-8.2652 -18.4192,-12.3982 -5.7234,-2.461 -9.2463,-1.4751 -9.3203,4.9176 z"
       style="fill:#cdb500;fill-opacity:1;fill-rule:evenodd;stroke:#cdb500;stroke-width:0.5669;stroke-linecap:butt;stroke-linejoin:miter;stroke-miterlimit:22.9256;stroke-dasharray:none;stroke-opacity:1"
       transform="matrix(1.3333333,0,0,-1.3333333,0,1700.7875)" />
    <path
       id="path7"
       d="m 131.7671,711.5754 c -3.9971,2.2009 -7.9957,4.4008 -11.9945,6.6008 7.7465,-0.529 13.5099,0.1054 11.0248,5.5825 -5.3958,9.3246 -11.6195,18.1962 -20.0206,25.884 -7.842,7.079 -11.3499,1.6084 -9.7458,-4.7412 11.9962,-38.9874 43.3491,-74.539 82.9948,-108.6194 2.6535,-1.2058 3.8151,-0.3829 2.8621,3.3166 -14.917,17.6978 -26.727,34.8315 -32.6288,50.8932 15.6391,-11.0724 30.4033,-25.7312 44.8416,-41.7127 0.7951,0.5157 1.5925,1.0304 2.389,1.5458 -0.7568,1.6007 -0.3872,3.8134 -1.1443,5.4133 30.9895,-34.8752 69.8139,-54.2347 139.9034,-18.7169 1.8102,1.3108 4.2074,1.7357 7.8224,0.3195 21.9544,-7.384 44.7815,-2.1294 69.2524,10.258 17.8453,9.2693 40.6083,13.5873 65.302,15.6881 -3.5138,-2.933 -2.2175,-5.6279 2.9078,-4.5411 36.3526,9.5496 93.3035,4.0453 154.6231,-4.6517 30.9932,-4.7696 59.8746,-11.8063 84.4518,-23.4561 l 12.7689,-6.6427 c 0.0939,-0.0136 0.9879,-0.6667 1.228,1.7008 1.5248,9.2454 5.6871,46.159 7.035,49.3772 2.3049,3.1405 -1.4247,5.6733 -5.1899,3.572 -2.8755,-4.8096 -6.7116,-4.3824 -11.4537,0.9739 -11.1495,10.0866 -21.3792,21.689 -27.381,40.2642 -1.3467,3.4673 -4.0255,3.2043 -3.9376,0.1624 0.7963,-5.523 1.4429,-11.0591 1.952,-16.6062 1.7764,-9.0142 4.9354,-17.725 12.0441,-23.8932 1.1296,-1.6656 2.2711,-3.3256 3.3896,-4.9972 0.2472,-0.3708 0.2917,-0.5567 0.3257,-1.1753 0.1372,-2.546 0.5205,-4.9767 1.4905,-7.3301 0.4323,-1.0505 0.4754,-1.2183 -0.7812,-0.5451 -11.0308,5.9137 -16.3313,9.0536 -27.2611,12.6777 0.421,4.2962 1.1137,9.7237 1.5446,15.3856 1.876,32.3719 -3.1164,62.5745 -12.3299,91.4471 -1.3901,3.8837 -3.4058,5.6849 -7.4749,0.6602 -16.7786,-13.7171 -27.7033,-30.7721 -35.7208,-48.4699 4.5649,-21.2 8.6763,-29.395 16.0347,-42.3187 -1.2611,-0.0882 -2.2133,-1.5843 -3.4475,-1.3337 -38.7884,7.8755 -69.5695,3.8812 -94.083,-7.136 -6.3295,10.4352 -12.6567,20.8701 -18.985,31.3053 -3.5068,-1.5933 -7.0112,-3.1873 -10.5174,-4.7809 -1.2509,-3.3333 -2.4985,-6.6674 -3.7483,-10.0012 1.9979,-5.0545 3.9983,-10.1083 5.9973,-15.1631 2.173,-5.5675 8.5929,-6.6946 17.2653,-5.4606 -0.171,-1.8871 -0.3382,-3.7744 -0.5074,-5.6614 -12.5825,0.4552 -24.6235,-1.2909 -36.2064,-3.3304 2.7374,9.2829 4.6837,17.9762 4.9224,27.2579 -0.2081,1.7544 -2.357,1.3366 -2.7511,-0.2225 -6.9162,-7.5674 -17.0759,-14.652 -28.5981,-20.2941 -1.6651,-1.6642 -3.5028,-2.1432 -5.7668,-1.1301 -4.4609,1.8524 -8.9198,3.7046 -13.379,5.5573 -3.725,0.5612 -5.3926,0.0861 -3.7083,-2.0784 1.0945,-1.76 2.1901,-3.52 3.2851,-5.2795 -26.0119,-1.5466 -45.3379,-9.1304 -65.7953,-20.1838 -21.5847,-15.6084 -38.4837,-11.6703 -51.6855,7.7011 -11.3816,24.7536 -13.9637,52.3333 3.5054,86.3561 2.2149,7.4775 0.3038,8.6165 -5.2906,4.1009 -22.8274,-13.2789 -30.0351,-40.0348 -28.2243,-74.5742 -13.5921,-94.0005 -102.1657,-35.7806 -123.656,3.8407 -4.9607,8.653 -9.3204,6.6152 -6.77,-1.3601 3.0937,-6.7337 6.1891,-13.4685 9.2829,-20.2033 -17.858,18.9541 -36.9913,36.3631 -60.2626,48.7686 z"
       style="fill:#cdb500;fill-opacity:1;fill-rule:evenodd;stroke:#cdb500;stroke-width:0.5669;stroke-linecap:butt;stroke-linejoin:miter;stroke-miterlimit:22.9256;stroke-dasharray:none;stroke-opacity:1"
       transform="matrix(1.3333333,0,0,-1.3333333,0,1700.7875)" />
    <path
       id="path8"
       d="m 270.1423,565.905 c -0.3246,0.32 -0.6469,0.6528 -0.9706,0.9864 1.1293,0.5539 1.7589,1.1364 1.7853,1.7136 0.0258,0.5893 -0.6341,1.6415 -2.0906,3.1215 -4.8554,4.932 -9.8679,9.9298 -14.9079,15.0435 -1.575,1.597 -2.8137,2.5534 -3.748,2.8584 -0.9655,0.3161 -2.1447,0.301 -3.6374,0.004 -0.3657,0.3702 -0.7294,0.7262 -0.9939,1.1001 7.2752,2.2879 14.6628,4.5465 21.9606,6.7677 0.2611,-0.3628 0.6233,-0.7234 0.9516,-1.0831 -1.1449,-0.5241 -1.7799,-1.0973 -1.8374,-1.6928 -0.0598,-0.6117 0.695,-1.7056 2.1503,-3.2953 1.3128,-1.4363 2.6553,-2.8721 3.9634,-4.2863 0.4482,0.807 0.9,1.6129 1.3488,2.418 0.3912,0.7016 0.9,1.6188 1.5636,2.7646 1.6594,2.8633 2.2016,4.5955 1.6395,5.2226 -0.2778,0.3075 -0.7098,0.5272 -1.2903,0.6239 -0.546,0.0912 -1.2535,0.0728 -2.1215,-0.0615 -0.3274,0.3458 -0.6553,0.7032 -0.9161,1.0632 6.4834,1.9919 12.943,3.9572 19.0735,5.8765 0.3254,-0.35 0.6182,-0.7112 0.9439,-1.0604 -1.7855,-0.6333 -3.5785,-1.6574 -5.2129,-3.0657 -1.6305,-1.4054 -3.0141,-3.0673 -4.2384,-4.9274 -0.5578,-0.8459 -1.072,-1.6586 -1.5916,-2.4645 3.422,-0.3294 6.8652,-1.1044 10.4094,-2.2374 3.5614,-1.1378 7.1898,-2.6637 10.9967,-4.549 0.7594,-0.3759 1.6815,-0.8941 2.9117,-1.5902 3.3784,-1.9117 6.219,-2.6547 8.5726,-2.1768 0.284,-0.3257 0.5703,-0.6412 0.8552,-0.9442 -6.2768,-2.2036 -12.5104,-4.4473 -19.0667,-6.7411 -0.322,0.3229 -0.6083,0.6444 -0.8634,0.9715 0.5502,0.2965 0.9218,0.6072 0.9842,0.8918 0.0694,0.3174 -0.009,0.6647 -0.4,1.0802 -1.0783,1.1475 -3.3313,2.4239 -6.774,3.8308 -3.5146,1.4366 -7.6544,2.6416 -12.3893,3.6212 -0.5341,-0.5621 -1.0004,-1.1222 -1.4667,-1.6829 2.3828,-2.5075 4.7594,-4.972 7.1359,-7.448 1.3981,-1.4559 2.5399,-2.3086 3.4495,-2.5898 0.7968,-0.2469 1.8882,-0.2341 3.1402,0.076 0.3209,-0.3257 0.6098,-0.6508 0.9312,-0.9754 -6.6387,-2.3564 -13.4986,-4.7486 -20.2504,-7.1634 z m 62.8398,35.4883 c 1.7714,0.3589 3.4818,0.5709 4.9936,0.6852 1.5128,0.115 2.9973,0.0949 4.4872,-0.0448 -3.2811,2.4579 -6.5339,4.9439 -9.966,7.4797 0.1281,-2.7121 0.2911,-5.4226 0.4852,-8.1201 z m -6.021,9.2223 c 0.0252,0.2145 -0.0389,0.4303 -0.0967,0.6176 -0.0641,0.2067 -0.1134,0.3855 -0.2302,0.5485 -0.2109,0.2931 -0.5025,0.4882 -0.877,0.6152 -0.3492,0.1182 -0.8906,0.1967 -1.5681,0.2063 -0.2892,0.3356 -0.5094,0.6939 -0.7308,1.0417 6.1903,1.592 12.3562,3.1499 18.2251,4.6857 0.2168,-0.3484 0.4371,-0.6874 0.6891,-1.025 -0.4649,-0.2577 -0.7416,-0.5097 -0.8816,-0.7798 -0.1426,-0.2727 -0.1607,-0.525 -0.0354,-0.7373 0.0949,-0.1593 0.2327,-0.3036 0.3588,-0.4564 0.1256,-0.1522 0.3779,-0.3682 0.7399,-0.6355 6.2781,-4.6395 12.4316,-9.1389 18.3781,-13.4949 1.6759,-1.228 2.9285,-1.9193 3.7454,-2.1501 0.8473,-0.2378 1.7569,-0.2239 2.6575,0.008 0.1777,-0.3055 0.3572,-0.6224 0.5358,-0.9388 -6.1575,-1.838 -12.2724,-3.6998 -18.5794,-5.6058 -0.1815,0.3147 -0.3949,0.6392 -0.5763,0.9542 0.9558,0.4237 1.5619,0.8467 1.8297,1.2829 0.2679,0.4377 0.1874,0.9352 -0.1953,1.5157 -0.9799,1.4879 -3.0625,2.4486 -6.313,2.8701 -3.2187,0.4181 -6.8105,0.161 -10.9417,-0.8243 0.1054,-1.5265 0.1961,-3.0524 0.3166,-4.5774 0.0451,-0.5902 0.1375,-1.1129 0.2412,-1.5616 0.1069,-0.4652 0.2801,-0.8181 0.4879,-1.0993 0.4016,-0.5428 0.9141,-0.8762 1.6591,-1.0069 0.6746,-0.1179 1.5454,-0.0283 2.5058,0.2747 0.2143,-0.3195 0.3983,-0.6511 0.6472,-0.9564 -4.4014,-1.3346 -8.9317,-2.6921 -13.3912,-4.0635 -0.2854,0.3226 -0.502,0.6483 -0.6865,0.9859 1.2452,0.5715 2.0919,1.2614 2.5492,2.0347 0.4711,0.8005 0.6893,2.1972 0.5632,4.2339 -0.3699,5.9618 -0.6911,11.9758 -1.0264,18.0377 z m 71.8823,15.0103 c -1.2951,-4.9669 -2.5188,-9.9162 -3.7374,-14.8587 -4.9499,3.5532 -9.9845,7.1875 -15.0736,10.904 1.9182,-4.3466 3.7727,-8.6598 5.6937,-12.8945 0.7268,-1.603 1.4066,-2.584 2.0636,-2.9528 0.6764,-0.3793 1.5951,-0.4354 2.8715,-0.2081 0.1409,-0.3161 0.2498,-0.623 0.4249,-0.9272 -3.3165,-0.8212 -6.597,-1.6421 -9.8767,-2.4823 -0.1769,0.3098 -0.286,0.6214 -0.4292,0.9434 0.8997,0.3424 1.4111,0.7653 1.5837,1.256 0.1712,0.4907 -0.0601,1.4491 -0.718,2.8814 -2.145,4.6695 -4.3693,9.3952 -6.5341,14.2166 -0.6707,1.4922 -1.2952,2.4106 -1.8522,2.7697 -0.5536,0.3569 -1.3759,0.4788 -2.3936,0.3864 -0.1822,0.3339 -0.3276,0.6778 -0.475,1.0225 5.8181,1.201 11.6098,2.3649 17.1351,3.5263 0.1446,-0.334 0.2546,-0.6786 0.4331,-1.0029 -0.303,-0.1591 -0.4869,-0.3365 -0.5998,-0.5205 -0.1182,-0.1888 -0.1287,-0.3736 -0.0538,-0.5853 0.0348,-0.1012 0.1854,-0.2458 0.3855,-0.4462 0.1834,-0.1845 0.4289,-0.4147 0.7651,-0.6891 1.7793,-1.4508 3.6056,-2.9137 5.4045,-4.3449 0.5363,1.9255 1.0395,3.8562 1.5437,5.8039 -8e-4,0.0207 -0.007,0.0408 -0.002,0.0595 0.2172,0.6565 0.2469,1.0911 0.1778,1.2912 -0.076,0.2186 -0.2492,0.3861 -0.4879,0.5014 -0.2446,0.1185 -0.5156,0.1846 -0.8912,0.218 -0.1434,0.3218 -0.2863,0.6415 -0.3957,0.982 5.027,1.0468 10.0962,2.0803 15.0673,3.1039 0.106,-0.3305 0.2143,-0.6528 0.3552,-0.9652 -0.8156,-0.2962 -1.2895,-0.6772 -1.4517,-1.1509 -0.1647,-0.4819 0.0587,-1.4264 0.6225,-2.8584 1.8031,-4.5808 3.5901,-9.0831 5.4082,-13.5369 0.5545,-1.3575 1.0647,-2.2085 1.5166,-2.501 0.5009,-0.324 1.1874,-0.4096 2.0653,-0.3112 0.104,-0.3014 0.2083,-0.6027 0.3801,-0.8932 -4.8506,-1.2036 -9.6619,-2.4282 -14.6369,-3.6584 -0.1401,0.2982 -0.3141,0.5961 -0.421,0.9062 1.1412,0.3481 1.7748,0.7977 2.0035,1.3589 0.2257,0.5539 -0.0133,1.622 -0.6939,3.2137 -1.7501,4.0901 -3.4651,8.2355 -5.176,12.4421 l -0.002,6e-4 z m 33.7136,-10.5676 c -0.0686,0.2923 -0.1698,0.5944 -0.2721,0.8872 0.777,0.2727 1.2231,0.6378 1.3873,1.0636 0.1726,0.4547 0.1153,1.3377 -0.2744,2.6717 -1.2827,4.382 -2.6045,8.8205 -3.9493,13.3092 -0.4181,1.3935 -0.8353,2.2623 -1.277,2.622 -0.4181,0.3408 -1.0632,0.5018 -1.9185,0.4751 -0.1051,0.3212 -0.2092,0.6321 -0.2797,0.9431 6.7784,1.1081 13.3619,2.1861 19.813,3.2533 0.5842,0.097 0.9995,0.2311 1.3754,0.4008 0.3795,0.1724 0.6202,0.3915 0.7934,0.6446 1.4241,-2.37 2.8823,-4.7267 4.3344,-7.0497 -0.3775,-0.1066 -0.7202,-0.2064 -1.0629,-0.3059 -1.2212,1.4052 -2.723,2.3633 -4.4981,2.8976 -1.781,0.5369 -3.7649,0.6083 -6.0284,0.2322 -1.1642,-0.1934 -1.8978,-0.4782 -2.2269,-0.8802 -0.3226,-0.3926 -0.3027,-1.1407 -0.003,-2.2252 0.2104,-0.7588 0.4088,-1.5021 0.6466,-2.2524 0.7506,0.1338 1.5738,0.2673 2.3916,0.4161 1.4706,0.2668 2.3837,0.618 2.772,1.0443 0.4014,0.4419 0.5522,1.1412 0.4198,2.1433 0.2739,0.0572 0.548,0.1043 0.8564,0.1508 1.3187,-2.6459 2.6345,-5.2682 3.9798,-7.8568 -0.273,-0.104 -0.5122,-0.2101 -0.7512,-0.3067 -0.9124,1.256 -1.8949,2.0628 -2.9165,2.4392 -0.9868,0.3637 -2.3162,0.394 -3.9232,0.0986 -0.7486,-0.1372 -1.4672,-0.2556 -2.1841,-0.3841 0.6761,-2.3748 1.3694,-4.7293 2.058,-7.0752 0.3532,-1.2036 0.8073,-1.9633 1.4167,-2.2726 0.5743,-0.2911 1.5945,-0.3027 2.9855,-0.0167 2.2085,0.4544 4.0317,1.3462 5.4524,2.715 1.3901,1.3405 2.446,3.2225 3.221,5.6027 0.341,0.006 0.682,0.0201 1.0576,0.0349 -0.3775,-3.0606 -0.7497,-6.0976 -1.0899,-9.1293 -0.305,0.0675 -0.5751,0.0989 -0.8799,0.0955 -0.2729,-0.003 -0.7112,-0.0691 -1.2571,-0.1819 -6.6189,-1.3731 -13.2633,-2.7786 -20.1691,-4.2041 z m 35.9158,24.7195 c -0.2506,1.3088 -0.534,2.141 -0.8473,2.4806 -0.3288,0.3561 -0.8504,0.5233 -1.5729,0.5451 -0.0655,0.2943 -0.093,0.5803 -0.1568,0.8836 4.7271,0.5661 9.3907,1.127 13.9885,1.6761 0.0266,-0.2928 0.0549,-0.5715 0.1508,-0.8586 -0.2793,-0.1369 -0.4405,-0.288 -0.5633,-0.4507 -0.129,-0.1704 -0.184,-0.3274 -0.1497,-0.4947 0.0261,-0.1349 0.1233,-0.3024 0.2628,-0.479 0.1602,-0.2033 0.3787,-0.3552 0.6063,-0.5173 1.7635,-1.2572 3.5088,-2.5183 5.2592,-3.7574 -0.1766,1.0265 -0.3365,2.0554 -0.4927,3.0983 -0.1908,1.2651 -0.4677,2.0577 -0.7574,2.401 -0.2775,0.3291 -0.7787,0.5088 -1.4332,0.5306 -0.0621,0.2855 -0.1222,0.561 -0.1485,0.8535 2.1103,0.26 4.2593,0.508 6.4077,0.7679 0.0246,-0.288 0.0516,-0.568 0.1457,-0.8416 -0.6622,-0.1814 -1.0494,-0.4561 -1.2342,-0.8495 -0.1857,-0.3918 -0.1693,-1.2198 0.0263,-2.4747 0.6322,-4.0708 1.319,-8.098 1.9735,-12.0914 0.1973,-1.2067 0.4008,-1.9843 0.6732,-2.287 0.2855,-0.3169 0.7682,-0.4581 1.3816,-0.4541 0.0241,-0.2742 0.0825,-0.5412 0.1421,-0.8082 -2.1943,-0.3705 -4.4521,-0.7466 -6.7442,-1.1092 -0.0607,0.2716 -0.0856,0.542 -0.1449,0.8206 0.8564,0.1608 1.3779,0.4193 1.6251,0.7702 0.2503,0.3575 0.3002,1.0106 0.1644,1.9604 -0.0331,0.2214 -0.0884,0.4508 -0.1151,0.6804 -4.9218,3.4194 -10.07,6.959 -15.2396,10.5925 0.7016,-4.1372 1.438,-8.2225 2.13,-12.2653 0.2421,-1.4159 0.5944,-2.3187 0.9932,-2.6977 0.3977,-0.3779 1.0423,-0.5216 1.9284,-0.4382 0.0261,-0.2841 0.0885,-0.5604 0.1157,-0.8363 -2.357,-0.3894 -4.7429,-0.7922 -7.164,-1.1905 -0.0635,0.2798 -0.091,0.5604 -0.1528,0.8493 0.6486,0.2143 1.1143,0.5133 1.311,0.9178 0.1945,0.4011 0.1466,1.2354 -0.0836,2.5109 -0.75,4.1443 -1.5069,8.3277 -2.2853,12.5626 z m 34.8177,-11.1098 c -0.0578,0.2599 -0.0794,0.5267 -0.0678,0.794 0.5871,0.1584 0.9746,0.4201 1.1611,0.7869 0.1854,0.3654 0.2452,1.1406 0.1372,2.3352 -0.354,3.8882 -0.6372,7.8213 -0.9686,11.7864 -0.1032,1.2328 -0.2962,1.999 -0.5576,2.3358 -0.2636,0.3393 -0.6698,0.5198 -1.29,0.578 -0.0235,0.2715 -0.0471,0.5516 -0.07,0.8297 3.2969,0.2412 6.5282,0.4671 9.7262,0.7001 -0.013,-0.2715 0.0431,-0.5451 0.0655,-0.8113 -0.5618,-0.1457 -0.9525,-0.388 -1.1438,-0.7506 -0.1885,-0.3566 -0.2273,-1.1469 -0.146,-2.3561 0.2625,-3.9033 0.5491,-7.7667 0.8861,-11.6017 0.1035,-1.1755 0.2801,-1.9204 0.5057,-2.2314 0.2217,-0.3053 0.6599,-0.4723 1.2391,-0.5032 -0.0145,-0.261 0.008,-0.5153 0.0632,-0.7693 -3.1604,-0.3781 -6.3165,-0.7483 -9.5403,-1.1225 z m 36.8716,15.3785 c -0.3155,-0.0711 -0.6315,-0.1417 -0.9479,-0.2129 -0.8847,1.6824 -1.779,2.8508 -2.6625,3.5263 -0.8629,0.6597 -1.8771,0.978 -2.9909,0.9278 -1.4975,-0.0672 -2.7022,-0.6786 -3.6198,-1.8221 -0.9244,-1.15 -1.389,-2.6263 -1.3513,-4.4376 0.0479,-2.3151 0.7552,-4.1894 2.0854,-5.6472 1.2978,-1.4236 2.8837,-2.0662 4.7795,-1.9165 1.2408,0.0978 2.293,0.5046 3.1386,1.1874 0.8674,0.7016 1.5998,1.6841 2.1078,2.9787 0.237,-0.044 0.4751,-0.0888 0.7132,-0.1333 -0.6619,-1.9681 -1.3218,-3.9421 -1.9803,-5.9142 -0.2367,0.0635 -0.5071,0.0984 -0.7449,0.1165 -0.2727,0.0219 -0.5134,0.0182 -0.754,-0.006 -0.345,-0.0349 -1.0021,-0.1593 -1.944,-0.3722 -0.9715,-0.2194 -1.7697,-0.3512 -2.3894,-0.4048 -3.236,-0.2789 -5.9156,0.474 -8.0076,2.2332 -2.1478,1.8053 -3.255,4.2789 -3.3426,7.4522 -0.0805,2.9141 0.7518,5.158 2.4299,6.7284 1.66,1.5548 4.2063,2.3884 7.5172,2.5106 0.7305,0.0272 1.6007,0.009 2.5704,-0.0502 1.0046,-0.0606 1.5954,-0.0822 1.84,-0.0745 0.2775,0.009 0.5573,0.066 0.8447,0.1386 0.3493,0.089 0.7101,0.2069 1.1041,0.3693 0.5259,-2.4069 1.0497,-4.8044 1.6059,-7.1778 l -10e-4,5e-4 z m 9.2104,-10.1364 c -0.0142,0.2444 0.005,0.4816 -0.009,0.7262 0.4887,0.1061 0.8314,0.3056 1.0122,0.622 0.18,0.3157 0.2784,1.0105 0.3107,2.0829 0.1038,3.4945 0.2123,7.0081 0.3166,10.546 0.0326,1.0993 -0.0385,1.7994 -0.2094,2.1186 -0.1622,0.3019 -0.4471,0.4972 -0.9627,0.5953 0.0196,0.2398 0.005,0.4858 0.0241,0.7307 2.5804,-0.005 5.1282,-0.002 7.6765,-0.002 -0.0221,-0.2339 -0.008,-0.4754 -0.0286,-0.7098 -0.4623,-0.0896 -0.7798,-0.2943 -0.9584,-0.5942 -0.1894,-0.3172 -0.3155,-0.9952 -0.3546,-2.0795 -0.0369,-0.9921 -0.0681,-1.9712 -0.0845,-2.9579 0.3436,0.3605 0.682,0.7171 1.031,1.0783 0.299,0.3104 0.6885,0.7092 1.1857,1.2143 1.224,1.2453 1.8454,2.0727 1.8607,2.4962 0.007,0.2191 -0.0647,0.3972 -0.1948,0.5403 -0.1244,0.1361 -0.3274,0.2361 -0.5655,0.3084 0.0207,0.2336 0.008,0.4734 0.0289,0.7129 2.27,6e-4 4.542,-8e-4 6.7785,10e-4 -0.0224,-0.2333 -0.0453,-0.4692 -0.0326,-0.6979 -0.6678,-0.0448 -1.4148,-0.3175 -2.2396,-0.777 -0.8708,-0.4847 -1.7031,-1.1146 -2.5478,-1.9128 -0.3756,-0.3549 -0.7271,-0.7101 -1.1064,-1.0627 0.8354,-0.7317 1.5744,-1.7178 2.2612,-2.9483 0.6772,-1.2141 1.266,-2.674 1.7649,-4.3577 0.1003,-0.3408 0.2344,-0.8028 0.3826,-1.3924 0.423,-1.6784 1.0557,-2.5949 1.8655,-2.7462 -0.0238,-0.2316 -0.0459,-0.459 -0.034,-0.692 -2.4177,-0.1134 -4.8314,-0.2364 -7.2808,-0.3534 0.0216,0.2318 0.009,0.4694 0.0309,0.7004 0.2449,0.0672 0.4278,0.1706 0.5446,0.3169 0.1153,0.1471 0.1556,0.3759 0.1644,0.6676 0.0249,0.8288 -0.2163,1.9267 -0.7983,3.3174 -0.5802,1.3861 -1.3405,2.7484 -2.2969,4.0685 -0.2965,-0.2185 -0.5924,-0.4382 -0.8887,-0.6585 -0.0518,-1.7614 -0.1182,-3.5155 -0.1859,-5.2687 -0.0425,-1.0573 0.0505,-1.7286 0.1996,-2.0274 0.142,-0.2865 0.4733,-0.466 0.9147,-0.5266 -0.0221,-0.2387 -0.0422,-0.4714 -0.0289,-0.7042 -2.5169,-0.1278 -5.0312,-0.2508 -7.5461,-0.375 z m 24.4221,1.1733 c 0.0236,0.2219 0.0485,0.4495 0.072,0.6704 0.5216,0.0504 0.8737,0.2528 1.0948,0.5771 0.2293,0.3382 0.3889,1.0738 0.4824,2.2218 0.1151,1.4219 0.239,2.8497 0.3592,4.2775 -0.8926,2.0307 -1.8068,4.0861 -2.7204,6.1509 -0.271,0.6123 -0.5395,1.042 -0.7761,1.2719 -0.2725,0.2659 -0.5857,0.4141 -0.9964,0.5031 0.0232,0.2325 0.0473,0.4626 0.0711,0.6931 2.683,-0.0998 5.2985,-0.199 7.8792,-0.2965 -0.0255,-0.2245 -0.0502,-0.4504 -0.0394,-0.6707 -0.3169,-0.0139 -0.6145,-0.0983 -0.7999,-0.2727 -0.1656,-0.155 -0.2767,-0.4011 -0.2889,-0.7183 -0.007,-0.1746 0.009,-0.3741 0.0712,-0.6165 0.0592,-0.2353 0.1312,-0.493 0.2633,-0.7787 0.4581,-0.9927 0.8955,-1.9783 1.3425,-2.956 0.5117,0.8397 1.0298,1.6813 1.5412,2.5314 0.2619,0.4377 0.4411,0.7923 0.5766,1.072 0.1383,0.2875 0.2001,0.5279 0.2213,0.7124 0.0315,0.2812 -0.0464,0.4986 -0.1706,0.6491 -0.1219,0.1471 -0.3563,0.252 -0.6659,0.3019 -0.01,0.2248 0.0165,0.4487 0.0414,0.6727 1.605,-0.0664 3.2091,-0.1284 4.8487,-0.1846 -0.0267,-0.2199 -0.0522,-0.4422 -0.0428,-0.6579 -0.4745,-0.1545 -0.8864,-0.4198 -1.2816,-0.7772 -0.388,-0.3504 -0.8339,-0.8949 -1.3093,-1.6251 -1.0953,-1.6773 -2.1985,-3.354 -3.2933,-5.0355 -0.1261,-1.4148 -0.2403,-2.8321 -0.3427,-4.2398 -0.0802,-1.1146 -0.0745,-1.836 0.0972,-2.1795 0.1642,-0.3277 0.4919,-0.5168 1.0032,-0.5588 -0.0255,-0.2162 -0.0499,-0.439 -0.0411,-0.6562 -2.3771,-0.0235 -4.7863,-0.055 -7.1969,-0.0813 z m 3.026,18.4467 c 1.0715,1.1367 2.1654,2.291 3.2585,3.4115 0.4175,0.4289 0.746,0.697 1.0102,0.8382 0.2605,0.14 0.5171,0.1967 0.7623,0.1857 0.3155,-0.0142 0.591,-0.1511 0.7999,-0.4204 0.1911,-0.2477 0.288,-0.5709 0.2463,-0.9343 -0.0317,-0.2755 -0.1423,-0.5139 -0.3299,-0.7254 -0.1772,-0.2004 -0.4669,-0.4204 -0.8808,-0.6216 -1.2237,-0.5964 -2.4539,-1.1917 -3.6439,-1.7924 -0.4198,0.0165 -0.8385,0.0375 -1.2226,0.0587 z"
       style="fill:#cdb500;fill-opacity:1;fill-rule:evenodd;stroke:#cdb500;stroke-width:0.5669;stroke-linecap:butt;stroke-linejoin:miter;stroke-miterlimit:22.9256;stroke-dasharray:none;stroke-opacity:1"
       transform="matrix(1.3333333,0,0,-1.3333333,0,1700.7875)" />
    <path
       id="path9"
       d="m 381.5158,770.2098 -31.356,-56.6447 c -0.8388,-1.6098 -1.1526,-3.3157 -1.0083,-5.135 -1.1851,-33.4335 18.6072,-53.1417 30.9682,-38.7487 12.9586,34.1197 18.4346,67.2848 7.4506,98.3494 1.298,6.3944 -3.4954,7.6003 -6.0545,2.179 z"
       style="fill:#cdb500;fill-opacity:1;fill-rule:evenodd;stroke:#cdb500;stroke-width:0.5669;stroke-linecap:butt;stroke-linejoin:miter;stroke-miterlimit:22.9256;stroke-dasharray:none;stroke-opacity:1"
       transform="matrix(1.3333333,0,0,-1.3333333,0,1700.7875)" />
  </g>
</svg>
